<svg xmlns="http://www.w3.org/2000/svg" width="483" height="475" viewBox="0 0 483 475" class="pic"> <path fill="none" stroke="#3A9BCD" stroke-width="5" stroke-linecap="round" stroke-miterlimit="10" d="M8.14 109.734h66.5v208H8.14" style="stroke-dasharray: 341px; stroke-dashoffset: 341px;"></path> <path fill="none" stroke="#3A9BCD" stroke-width="5" stroke-linecap="round" stroke-miterlimit="10" d="M480.14 126.734h-67.5v209h67.5" style="stroke-dasharray: 344px; stroke-dashoffset: 344px;"></path> <path fill="none" stroke="#3A9BCD" stroke-width="5" stroke-linecap="round" stroke-miterlimit="10" d="M75.14 133.734h93" style="stroke-dasharray: 93px; stroke-dashoffset: 93px;"></path> <path fill="none" stroke="#3A9BCD" stroke-width="5" stroke-linecap="round" stroke-miterlimit="10" d="M75.14 287.734h34.578l48.988 80.29s6.77 11.362 28.328 11.362" style="stroke-dasharray: 160.287px; stroke-dashoffset: 160.287px;"></path> <path fill="none" stroke="#3A9BCD" stroke-width="5" stroke-linecap="round" stroke-miterlimit="10" d="M412.596 153.23l-84.943-34.496h-78.298s-27.55-5.35-48.958 22.042-63.033 72.27-63.033 72.27 11.09 22.567 29.733 22.567c20.218 0 33.22-6.235 48.424-22.692 15.205-16.455 30.072-30.767 30.072-30.767l38.65 4.444 74.334 131.136h53.565" style="stroke-dasharray: 702.887px; stroke-dashoffset: 702.887px;"></path> <path fill="none" stroke="#3A9BCD" stroke-width="5.004" stroke-linecap="round" stroke-miterlimit="10" d="M358.815 317.756s8.283 9.185-5.325 23.108c-10.228 10.464-28.68 13.325-42.7-5.926-28.12-38.603-41.318-60.73-41.318-60.73" style="stroke-dasharray: 149.341px; stroke-dashoffset: 149.341px;"></path> <path fill="none" stroke="#3A9BCD" stroke-width="5.004" stroke-linecap="round" stroke-miterlimit="10" d="M228.94 299.685l35.5 58.658s11.757 14.64 31.32 1.69" style="stroke-dasharray: 103.037px; stroke-dashoffset: 103.037px;"></path> <path fill="none" stroke="#3A9BCD" stroke-width="5.004" stroke-linecap="round" stroke-miterlimit="10" d="M189.812 332.533l26.705 39.733s7.792 8.948 22.978 1.66" style="stroke-dasharray: 72.4795px; stroke-dashoffset: 72.4795px;"></path> <ellipse fill="none" stroke="#3A9BCD" stroke-width="5.004" stroke-linecap="round" stroke-miterlimit="10" cx="466.594" cy="283.355" rx="13.929" ry="13.948"></ellipse> <ellipse fill="none" stroke="#3A9BCD" stroke-width="5.004" stroke-linecap="round" stroke-miterlimit="10" cx="22.833" cy="264.395" rx="13.929" ry="13.948"></ellipse> <path fill="none" stroke="#3A9BCD" stroke-width="5" stroke-linecap="round" stroke-miterlimit="10" d="M424.64 405.234v22" style="stroke-dasharray: 22px; stroke-dashoffset: 22px;"></path> <path fill="none" stroke="#3A9BCD" stroke-width="5" stroke-linecap="round" stroke-miterlimit="10" d="M414.14 416.734h22" style="stroke-dasharray: 22px; stroke-dashoffset: 22px;"></path> <path fill="none" stroke="#3A9BCD" stroke-width="5" stroke-linecap="round" stroke-miterlimit="10" d="M125.64 55.234v34" style="stroke-dasharray: 34px; stroke-dashoffset: 34px;"></path> <path fill="none" stroke="#3A9BCD" stroke-width="5" stroke-linecap="round" stroke-miterlimit="10" d="M108.14 72.734h35" style="stroke-dasharray: 35px; stroke-dashoffset: 35px;"></path> <path fill="none" stroke="#3A9BCD" stroke-width="5" stroke-linecap="round" stroke-miterlimit="10" d="M412.64 74.234v18" style="stroke-dasharray: 18px; stroke-dashoffset: 18px;"></path> <path fill="none" stroke="#3A9BCD" stroke-width="5" stroke-linecap="round" stroke-miterlimit="10" d="M403.14 83.734h19" style="stroke-dasharray: 19px; stroke-dashoffset: 19px;"></path> <path fill="none" stroke="#3A9BCD" stroke-width="5" stroke-linecap="round" stroke-miterlimit="10" d="M246.64 419.234v18" style="stroke-dasharray: 18px; stroke-dashoffset: 18px;"></path> <path fill="none" stroke="#3A9BCD" stroke-width="5" stroke-linecap="round" stroke-miterlimit="10" d="M238.14 428.734h18" style="stroke-dasharray: 18px; stroke-dashoffset: 18px;"></path> <ellipse fill="none" stroke="#3A9BCD" stroke-width="5.004" stroke-linecap="round" stroke-miterlimit="10" cx="67.973" cy="391.611" rx="14.25" ry="14.271"></ellipse> <ellipse fill="none" stroke="#3A9BCD" stroke-width="5.004" stroke-linecap="round" stroke-miterlimit="10" cx="338.963" cy="437.827" rx="6.282" ry="6.291"></ellipse> <ellipse fill="none" stroke="#3A9BCD" stroke-width="5.004" stroke-linecap="round" stroke-miterlimit="10" cx="154.358" cy="466.268" rx="6.282" ry="6.291"></ellipse> <ellipse fill="none" stroke="#3A9BCD" stroke-width="5.004" stroke-linecap="round" stroke-miterlimit="10" cx="325.945" cy="34.92" rx="6.282" ry="6.291"></ellipse> <ellipse fill="none" stroke="#3A9BCD" stroke-width="5.004" stroke-linecap="round" stroke-miterlimit="10" cx="8.804" cy="8.85" rx="6.282" ry="6.291"></ellipse> </svg>