<svg xmlns="http://www.w3.org/2000/svg" xmlns:xlink="http://www.w3.org/1999/xlink" x="0px" y="0px" width="198" height="80" viewBox="0 0 198 80" style="enable-background:new 0 0 198 80;" xml:space="preserve">
<style type="text/css">
	.st0{fill:#3F9ACB;}
	.st1{fill:#DCDBDB;}
	.st2{fill-rule:evenodd;clip-rule:evenodd;fill:#3F9ACB;}
</style>
<g>
	<path class="st0" d="M57.71,56.44v-25.6h2.74l6.4,15.83V30.84h3.66v25.6h-2.6l-6.54-17.03v17.03H57.71z"/>
	<path class="st0" d="M80.91,56.69c-1.29,0-2.39-0.2-3.31-0.58c-0.92-0.39-1.65-0.96-2.19-1.71c-0.54-0.75-0.94-1.64-1.19-2.65   c-0.25-1.01-0.37-2.19-0.37-3.54v-9.29c0-1.34,0.12-2.51,0.37-3.51c0.25-1,0.64-1.87,1.19-2.61c0.54-0.74,1.27-1.29,2.19-1.66   c0.92-0.37,2.02-0.56,3.31-0.56c2.49,0,4.29,0.71,5.4,2.14c1.11,1.43,1.66,3.5,1.66,6.2v9.29c0,1.32-0.13,2.49-0.38,3.51   c-0.25,1.01-0.65,1.9-1.19,2.66c-0.54,0.76-1.27,1.33-2.19,1.73C83.29,56.5,82.19,56.69,80.91,56.69z M78.25,52.54   c0.49,0.77,1.38,1.16,2.67,1.16c1.29,0,2.17-0.38,2.66-1.16c0.49-0.77,0.74-1.91,0.74-3.41V38.01c0-1.49-0.24-2.6-0.73-3.33   c-0.49-0.73-1.38-1.1-2.67-1.1c-1.3,0-2.19,0.37-2.67,1.1c-0.48,0.73-0.73,1.84-0.73,3.33v11.11   C77.51,50.63,77.76,51.77,78.25,52.54z"/>
	<path class="st0" d="M97.91,56.69c-1.29,0-2.39-0.2-3.31-0.58c-0.92-0.39-1.65-0.96-2.19-1.71c-0.54-0.75-0.94-1.64-1.19-2.65   c-0.25-1.01-0.37-2.19-0.37-3.54v-9.29c0-1.34,0.12-2.51,0.37-3.51c0.25-1,0.64-1.87,1.19-2.61c0.54-0.74,1.27-1.29,2.19-1.66   c0.92-0.37,2.02-0.56,3.31-0.56c2.5,0,4.3,0.71,5.4,2.14c1.11,1.43,1.66,3.5,1.66,6.2v9.29c0,1.32-0.13,2.49-0.38,3.51   c-0.25,1.01-0.65,1.9-1.19,2.66c-0.54,0.76-1.27,1.33-2.19,1.73C100.29,56.5,99.19,56.69,97.91,56.69z M95.25,52.54   c0.49,0.77,1.38,1.16,2.66,1.16c1.29,0,2.17-0.38,2.66-1.16c0.49-0.77,0.74-1.91,0.74-3.41V38.01c0-1.49-0.24-2.6-0.73-3.33   c-0.48-0.73-1.37-1.1-2.67-1.1c-1.29,0-2.19,0.37-2.67,1.1c-0.48,0.73-0.73,1.84-0.73,3.33v11.11   C94.51,50.63,94.76,51.77,95.25,52.54z"/>
	<path class="st0" d="M114.99,56.69c-2.3,0-4.06-0.68-5.28-2.03c-1.21-1.35-1.9-3.2-2.04-5.54l3.66-0.91   c0.18,3.66,1.4,5.48,3.66,5.48c1.83,0,2.74-0.91,2.74-2.74c0-0.54-0.07-1.05-0.22-1.51c-0.15-0.46-0.37-0.88-0.68-1.27   c-0.31-0.39-0.58-0.7-0.83-0.93c-0.25-0.23-0.58-0.52-1.01-0.86l-4.57-3.66c-0.84-0.66-1.51-1.49-2.01-2.51   c-0.5-1.01-0.75-2.17-0.75-3.46c0-1.89,0.59-3.39,1.76-4.5c1.17-1.11,2.72-1.67,4.66-1.67c2.08,0,3.73,0.51,4.95,1.52   c1.22,1.01,1.98,2.45,2.26,4.31c0.03,0.2,0.06,0.48,0.1,0.83l-3.66,0.91c-0.01-0.16-0.03-0.4-0.07-0.73   c-0.16-1.16-0.52-2.09-1.09-2.79c-0.57-0.7-1.4-1.05-2.49-1.05c-0.88,0-1.55,0.25-2.03,0.74c-0.48,0.49-0.72,1.17-0.72,2.05   c0,1.44,0.61,2.64,1.83,3.61l4.57,3.66c2.44,1.97,3.66,4.33,3.66,7.07c0,1.88-0.58,3.34-1.73,4.4   C118.5,56.17,116.94,56.69,114.99,56.69z"/>
	<path class="st0" d="M124.21,56.44v-25.6h6.4c4.27,0,6.4,2.44,6.4,7.31c0,2.09-0.55,3.67-1.65,4.76c-1.1,1.09-2.68,1.64-4.75,1.64   h-2.74v11.88H124.21z M127.86,41.81h0.91c0.83,0,1.51-0.05,2.04-0.14c0.53-0.1,0.99-0.27,1.4-0.54c0.4-0.26,0.69-0.64,0.87-1.12   c0.18-0.49,0.27-1.1,0.27-1.86c0-0.91-0.07-1.66-0.2-2.22c-0.13-0.57-0.38-1.03-0.74-1.39c-0.36-0.36-0.82-0.61-1.39-0.75   c-0.57-0.14-1.31-0.21-2.25-0.21h-0.91V41.81z"/>
	<path class="st0" d="M139.22,56.44v-25.6h3.66v10.97h6.4V30.84h3.66v25.6h-3.66V44.55h-6.4v11.88H139.22z"/>
	<path class="st0" d="M156.74,56.44v-25.6h10.06v2.74h-6.4v8.23h4.57v2.74h-4.57v9.14h6.4v2.74H156.74z"/>
	<path class="st0" d="M169.19,56.44v-25.6h4.57c2.72,0,4.77,0.53,6.16,1.58c1.38,1.06,2.07,2.82,2.07,5.27   c0,1.52-0.27,2.8-0.81,3.83c-0.54,1.03-1.34,1.73-2.39,2.11l4.11,12.8h-3.63l-3.69-11.88h-2.74v11.88H169.19z M172.84,41.81h0.92   c1.52,0,2.66-0.32,3.43-0.96c0.76-0.64,1.14-1.69,1.14-3.15c0-1.46-0.38-2.51-1.14-3.15c-0.76-0.64-1.91-0.96-3.43-0.96h-0.92   V41.81z"/>
	<path class="st0" d="M185.16,56.44v-25.6h10.06v2.74h-6.4v8.23h4.57v2.74h-4.57v9.14h6.4v2.74H185.16z"/>
</g>
<g>
	<path class="st1" d="M60.75,64.76v0.83h-1.66v6.65h-0.97v-6.65h-1.66v-0.83H60.75z"/>
	<path class="st1" d="M62.43,69.68c0.01,0.27,0.03,0.52,0.08,0.75c0.04,0.23,0.11,0.42,0.21,0.59c0.1,0.17,0.23,0.3,0.39,0.39   c0.16,0.09,0.37,0.14,0.62,0.14c0.21,0,0.4-0.03,0.58-0.09c0.18-0.06,0.3-0.11,0.38-0.16l0.17,0.74c-0.09,0.07-0.25,0.14-0.47,0.21   c-0.22,0.08-0.48,0.11-0.78,0.11c-0.4,0-0.73-0.07-1-0.22c-0.27-0.14-0.49-0.35-0.66-0.6c-0.17-0.26-0.29-0.57-0.36-0.93   c-0.07-0.36-0.11-0.76-0.11-1.19c0-1.04,0.17-1.81,0.52-2.29c0.35-0.48,0.8-0.72,1.37-0.72c0.64,0,1.09,0.24,1.36,0.72   c0.27,0.48,0.4,1.16,0.4,2.03c0,0.08,0,0.16,0,0.24c0,0.08,0,0.17-0.01,0.25H62.43z M63.37,67.22c-0.31,0-0.53,0.15-0.68,0.46   c-0.14,0.31-0.23,0.72-0.25,1.24h1.72c0-0.52-0.05-0.94-0.16-1.25C63.89,67.37,63.68,67.22,63.37,67.22z"/>
	<path class="st1" d="M68.29,72.38c-0.39,0-0.71-0.08-0.97-0.23c-0.26-0.15-0.47-0.36-0.63-0.62c-0.16-0.26-0.28-0.57-0.35-0.93   c-0.07-0.36-0.1-0.75-0.1-1.18c0-0.94,0.17-1.67,0.51-2.2c0.34-0.53,0.86-0.79,1.55-0.79c0.21,0,0.4,0.03,0.56,0.08   c0.17,0.05,0.32,0.11,0.46,0.19l-0.24,0.77c-0.22-0.14-0.47-0.22-0.75-0.22c-0.39,0-0.68,0.18-0.86,0.53   c-0.18,0.35-0.28,0.9-0.28,1.64c0,0.31,0.02,0.6,0.05,0.86c0.04,0.26,0.1,0.49,0.19,0.68c0.09,0.19,0.21,0.33,0.36,0.44   c0.15,0.11,0.34,0.16,0.57,0.16c0.16,0,0.3-0.02,0.43-0.06c0.13-0.04,0.25-0.09,0.36-0.16l0.21,0.72   c-0.12,0.08-0.27,0.15-0.46,0.22C68.72,72.35,68.51,72.38,68.29,72.38z"/>
	<path class="st1" d="M70.43,72.24v-8.22l0.93-0.16v2.74c0.14-0.04,0.29-0.08,0.45-0.11c0.16-0.03,0.32-0.04,0.49-0.04   c0.24,0,0.46,0.04,0.67,0.11c0.21,0.08,0.39,0.2,0.54,0.38c0.15,0.18,0.28,0.42,0.37,0.73c0.09,0.31,0.14,0.69,0.14,1.14v3.42   h-0.93v-3.35c0-0.56-0.07-0.97-0.22-1.23c-0.14-0.26-0.41-0.39-0.81-0.39c-0.21,0-0.44,0.04-0.7,0.11v4.86H70.43z"/>
	<path class="st1" d="M75.68,66.74c0.27-0.08,0.55-0.15,0.86-0.2c0.31-0.05,0.59-0.08,0.85-0.08c0.28,0,0.54,0.04,0.77,0.11   c0.23,0.08,0.43,0.2,0.59,0.38c0.16,0.18,0.29,0.42,0.38,0.73c0.09,0.31,0.14,0.69,0.14,1.14v3.42h-0.93v-3.35   c0-0.56-0.07-0.97-0.22-1.23c-0.14-0.26-0.41-0.39-0.81-0.39c-0.21,0-0.44,0.04-0.7,0.11v4.86h-0.93V66.74z"/>
	<path class="st1" d="M84.58,69.41c0,0.45-0.04,0.85-0.12,1.22c-0.08,0.36-0.2,0.68-0.36,0.93c-0.16,0.26-0.37,0.46-0.62,0.6   c-0.25,0.14-0.54,0.22-0.88,0.22c-0.34,0-0.63-0.07-0.89-0.22c-0.25-0.14-0.46-0.35-0.62-0.6c-0.16-0.26-0.28-0.57-0.36-0.93   c-0.08-0.36-0.12-0.77-0.12-1.22c0-0.44,0.04-0.84,0.12-1.21c0.08-0.37,0.2-0.68,0.36-0.94c0.16-0.26,0.37-0.47,0.62-0.61   c0.25-0.14,0.55-0.22,0.89-0.22c0.34,0,0.63,0.07,0.88,0.22c0.25,0.14,0.45,0.35,0.62,0.61c0.16,0.26,0.28,0.58,0.36,0.94   S84.58,68.97,84.58,69.41z M83.61,69.41c0-0.32-0.02-0.61-0.05-0.87c-0.04-0.26-0.09-0.49-0.17-0.68   c-0.08-0.19-0.18-0.34-0.31-0.44c-0.13-0.11-0.28-0.16-0.46-0.16c-0.19,0-0.34,0.05-0.47,0.16c-0.13,0.1-0.23,0.25-0.31,0.44   c-0.08,0.19-0.14,0.42-0.18,0.68c-0.04,0.26-0.05,0.55-0.05,0.87c0,0.32,0.02,0.61,0.05,0.87c0.04,0.26,0.09,0.49,0.18,0.68   c0.08,0.19,0.19,0.33,0.31,0.44c0.13,0.1,0.28,0.16,0.47,0.16c0.18,0,0.33-0.05,0.46-0.16c0.13-0.1,0.23-0.25,0.31-0.44   c0.08-0.19,0.14-0.41,0.17-0.68C83.59,70.02,83.61,69.73,83.61,69.41z"/>
	<path class="st1" d="M87.47,72.35c-0.53-0.01-0.91-0.15-1.14-0.39c-0.23-0.25-0.35-0.64-0.35-1.18v-6.75l0.93-0.16v6.93   c0,0.25,0.05,0.43,0.15,0.54c0.1,0.11,0.28,0.19,0.53,0.23L87.47,72.35z"/>
	<path class="st1" d="M92.32,69.41c0,0.45-0.04,0.85-0.12,1.22c-0.08,0.36-0.2,0.68-0.36,0.93c-0.16,0.26-0.37,0.46-0.62,0.6   c-0.25,0.14-0.54,0.22-0.88,0.22c-0.34,0-0.63-0.07-0.89-0.22c-0.25-0.14-0.46-0.35-0.62-0.6c-0.16-0.26-0.28-0.57-0.36-0.93   c-0.08-0.36-0.12-0.77-0.12-1.22c0-0.44,0.04-0.84,0.12-1.21s0.2-0.68,0.36-0.94C89,67,89.2,66.79,89.46,66.65   c0.25-0.14,0.55-0.22,0.89-0.22c0.34,0,0.63,0.07,0.88,0.22c0.25,0.14,0.45,0.35,0.62,0.61c0.16,0.26,0.28,0.58,0.36,0.94   S92.32,68.97,92.32,69.41z M91.35,69.41c0-0.32-0.02-0.61-0.05-0.87c-0.04-0.26-0.09-0.49-0.17-0.68   c-0.08-0.19-0.18-0.34-0.31-0.44c-0.13-0.11-0.28-0.16-0.46-0.16c-0.19,0-0.34,0.05-0.47,0.16c-0.13,0.1-0.23,0.25-0.31,0.44   c-0.08,0.19-0.14,0.42-0.18,0.68c-0.04,0.26-0.05,0.55-0.05,0.87c0,0.32,0.02,0.61,0.05,0.87c0.04,0.26,0.09,0.49,0.18,0.68   c0.08,0.19,0.19,0.33,0.31,0.44c0.13,0.1,0.28,0.16,0.47,0.16c0.18,0,0.33-0.05,0.46-0.16c0.13-0.1,0.23-0.25,0.31-0.44   c0.08-0.19,0.14-0.41,0.17-0.68C91.33,70.02,91.35,69.73,91.35,69.41z"/>
	<path class="st1" d="M97.1,72.08c0,0.4-0.05,0.74-0.16,1.02c-0.1,0.28-0.25,0.5-0.43,0.68c-0.18,0.17-0.39,0.3-0.63,0.38   c-0.24,0.08-0.5,0.12-0.77,0.12c-0.23,0-0.46-0.03-0.69-0.08c-0.23-0.05-0.44-0.13-0.64-0.23l0.19-0.78   c0.13,0.07,0.29,0.14,0.48,0.19c0.19,0.06,0.38,0.09,0.58,0.09c0.35,0,0.63-0.1,0.83-0.3c0.2-0.2,0.3-0.55,0.3-1.04v-0.27   c-0.12,0.05-0.24,0.09-0.37,0.12c-0.13,0.03-0.28,0.05-0.44,0.05c-0.68,0-1.17-0.23-1.48-0.7c-0.31-0.46-0.47-1.12-0.47-1.97   c0-0.45,0.04-0.86,0.12-1.23c0.08-0.36,0.21-0.67,0.39-0.93c0.18-0.26,0.41-0.45,0.69-0.58c0.28-0.13,0.62-0.2,1.03-0.2   c0.27,0,0.53,0.03,0.78,0.08c0.26,0.05,0.48,0.12,0.69,0.21V72.08z M96.17,67.33c-0.1-0.03-0.2-0.05-0.29-0.06   c-0.09-0.01-0.18-0.02-0.26-0.02c-0.43,0-0.75,0.17-0.95,0.5c-0.2,0.33-0.3,0.87-0.3,1.62c0,0.68,0.1,1.15,0.29,1.43   c0.19,0.28,0.47,0.42,0.83,0.42c0.12,0,0.24-0.01,0.35-0.04c0.11-0.03,0.22-0.07,0.32-0.12V67.33z"/>
	<path class="st1" d="M100.14,71.07c0.21-0.72,0.4-1.44,0.57-2.17c0.17-0.73,0.34-1.5,0.5-2.32h0.92c-0.11,0.53-0.22,1.04-0.35,1.56   c-0.13,0.51-0.25,1-0.39,1.48c-0.13,0.48-0.27,0.92-0.4,1.35c-0.13,0.42-0.26,0.8-0.37,1.15c-0.14,0.4-0.27,0.74-0.4,1.02   c-0.13,0.28-0.26,0.5-0.41,0.67c-0.15,0.17-0.31,0.29-0.48,0.37c-0.17,0.08-0.38,0.11-0.62,0.11c-0.13,0-0.26-0.02-0.39-0.05   c-0.13-0.03-0.24-0.07-0.32-0.1l0.17-0.76c0.19,0.08,0.36,0.12,0.53,0.12c0.21,0,0.38-0.08,0.51-0.23   c0.13-0.15,0.26-0.38,0.38-0.68l0.11-0.27c-0.14-0.37-0.28-0.79-0.42-1.25c-0.14-0.46-0.28-0.93-0.41-1.43   c-0.13-0.5-0.26-1.01-0.38-1.53c-0.12-0.52-0.23-1.03-0.34-1.53h0.98c0.06,0.34,0.13,0.71,0.21,1.11c0.08,0.4,0.16,0.81,0.25,1.21   c0.09,0.4,0.18,0.79,0.28,1.17C99.96,70.44,100.05,70.78,100.14,71.07z"/>
	<path class="st1" d="M111.82,64.76c-0.16,0.24-0.34,0.51-0.53,0.81c-0.2,0.3-0.4,0.6-0.61,0.91c-0.21,0.31-0.42,0.62-0.63,0.92   c-0.21,0.3-0.42,0.58-0.61,0.84c0.22,0.22,0.45,0.49,0.7,0.82c0.25,0.33,0.5,0.67,0.74,1.04c0.25,0.36,0.48,0.73,0.69,1.11   c0.22,0.38,0.39,0.72,0.52,1.04H111c-0.15-0.33-0.33-0.67-0.52-1.02c-0.2-0.35-0.41-0.68-0.63-1c-0.22-0.32-0.44-0.62-0.67-0.89   c-0.23-0.27-0.45-0.5-0.66-0.69v3.6h-0.97v-7.48h0.97v3.3c0.19-0.24,0.38-0.51,0.59-0.81c0.21-0.3,0.42-0.6,0.62-0.91   c0.21-0.3,0.4-0.59,0.58-0.87c0.18-0.28,0.33-0.52,0.45-0.72H111.82z"/>
	<path class="st1" d="M113.1,66.74c0.27-0.08,0.55-0.15,0.86-0.2c0.31-0.05,0.59-0.08,0.85-0.08c0.28,0,0.54,0.04,0.77,0.11   c0.23,0.08,0.43,0.2,0.59,0.38c0.16,0.18,0.29,0.42,0.38,0.73c0.09,0.31,0.14,0.69,0.14,1.14v3.42h-0.93v-3.35   c0-0.56-0.07-0.97-0.22-1.23c-0.14-0.26-0.41-0.39-0.81-0.39c-0.21,0-0.44,0.04-0.7,0.11v4.86h-0.93V66.74z"/>
	<path class="st1" d="M122,69.41c0,0.45-0.04,0.85-0.12,1.22c-0.08,0.36-0.2,0.68-0.36,0.93c-0.16,0.26-0.37,0.46-0.62,0.6   c-0.25,0.14-0.54,0.22-0.88,0.22c-0.34,0-0.63-0.07-0.89-0.22c-0.25-0.14-0.46-0.35-0.62-0.6c-0.16-0.26-0.28-0.57-0.36-0.93   c-0.08-0.36-0.12-0.77-0.12-1.22c0-0.44,0.04-0.84,0.12-1.21c0.08-0.37,0.2-0.68,0.36-0.94c0.16-0.26,0.37-0.47,0.62-0.61   c0.25-0.14,0.55-0.22,0.89-0.22c0.34,0,0.63,0.07,0.88,0.22c0.25,0.14,0.45,0.35,0.62,0.61c0.16,0.26,0.28,0.58,0.36,0.94   C121.96,68.57,122,68.97,122,69.41z M121.02,69.41c0-0.32-0.02-0.61-0.05-0.87c-0.04-0.26-0.09-0.49-0.17-0.68   c-0.08-0.19-0.18-0.34-0.31-0.44c-0.13-0.11-0.28-0.16-0.46-0.16c-0.19,0-0.34,0.05-0.47,0.16c-0.13,0.1-0.23,0.25-0.31,0.44   c-0.08,0.19-0.14,0.42-0.18,0.68c-0.04,0.26-0.05,0.55-0.05,0.87c0,0.32,0.02,0.61,0.05,0.87c0.04,0.26,0.09,0.49,0.18,0.68   c0.08,0.19,0.19,0.33,0.31,0.44c0.13,0.1,0.28,0.16,0.47,0.16c0.18,0,0.34-0.05,0.46-0.16c0.13-0.1,0.23-0.25,0.31-0.44   c0.08-0.19,0.14-0.41,0.17-0.68C121.01,70.02,121.02,69.73,121.02,69.41z"/>
	<path class="st1" d="M124.9,72.24h-0.94c-0.22-0.74-0.44-1.59-0.64-2.56c-0.2-0.96-0.38-2-0.55-3.11h0.92   c0.03,0.31,0.07,0.67,0.13,1.09c0.06,0.41,0.12,0.84,0.19,1.27c0.07,0.44,0.14,0.86,0.21,1.26c0.07,0.41,0.14,0.75,0.21,1.04   c0.07-0.29,0.14-0.64,0.22-1.06c0.08-0.42,0.17-0.85,0.25-1.29c0.08-0.44,0.16-0.87,0.23-1.28c0.07-0.41,0.13-0.76,0.17-1.04h0.87   c0.03,0.28,0.07,0.63,0.13,1.04c0.06,0.41,0.13,0.84,0.19,1.28c0.07,0.44,0.14,0.87,0.21,1.29c0.07,0.42,0.14,0.77,0.19,1.06   c0.07-0.29,0.13-0.64,0.2-1.05c0.07-0.41,0.14-0.83,0.21-1.26c0.07-0.43,0.13-0.86,0.19-1.27c0.06-0.41,0.1-0.78,0.13-1.09h0.89   c-0.17,1.11-0.34,2.15-0.54,3.11c-0.2,0.97-0.41,1.82-0.63,2.56h-0.91c-0.06-0.22-0.12-0.51-0.19-0.86   c-0.07-0.35-0.14-0.72-0.21-1.12c-0.07-0.4-0.13-0.79-0.19-1.19c-0.06-0.4-0.11-0.76-0.15-1.1c-0.04,0.33-0.1,0.7-0.17,1.1   c-0.07,0.4-0.15,0.8-0.23,1.19c-0.08,0.4-0.16,0.77-0.23,1.12C125.02,71.73,124.95,72.02,124.9,72.24z"/>
	<path class="st1" d="M131.12,72.35c-0.53-0.01-0.91-0.15-1.14-0.39c-0.23-0.25-0.35-0.64-0.35-1.18v-6.75l0.93-0.16v6.93   c0,0.25,0.05,0.43,0.15,0.54c0.1,0.11,0.28,0.19,0.53,0.23L131.12,72.35z"/>
	<path class="st1" d="M132.97,69.68c0.01,0.27,0.03,0.52,0.08,0.75c0.04,0.23,0.11,0.42,0.21,0.59c0.1,0.17,0.23,0.3,0.39,0.39   c0.16,0.09,0.37,0.14,0.62,0.14c0.21,0,0.4-0.03,0.58-0.09c0.18-0.06,0.3-0.11,0.38-0.16l0.17,0.74c-0.09,0.07-0.25,0.14-0.47,0.21   c-0.22,0.08-0.48,0.11-0.78,0.11c-0.4,0-0.73-0.07-1-0.22c-0.27-0.14-0.49-0.35-0.66-0.6c-0.17-0.26-0.29-0.57-0.36-0.93   c-0.07-0.36-0.11-0.76-0.11-1.19c0-1.04,0.17-1.81,0.52-2.29c0.35-0.48,0.8-0.72,1.37-0.72c0.64,0,1.09,0.24,1.36,0.72   c0.27,0.48,0.4,1.16,0.4,2.03c0,0.08,0,0.16,0,0.24c0,0.08,0,0.17-0.01,0.25H132.97z M133.91,67.22c-0.31,0-0.54,0.15-0.68,0.46   c-0.14,0.31-0.22,0.72-0.25,1.24h1.72c0-0.52-0.05-0.94-0.16-1.25C134.43,67.37,134.22,67.22,133.91,67.22z"/>
	<path class="st1" d="M139.53,64.02l0.93-0.16v8.23c-0.2,0.09-0.43,0.16-0.69,0.21c-0.26,0.05-0.52,0.08-0.79,0.08   c-0.78,0-1.34-0.25-1.69-0.75c-0.35-0.5-0.52-1.25-0.52-2.25c0-0.45,0.04-0.86,0.11-1.23c0.08-0.36,0.19-0.67,0.36-0.93   c0.16-0.26,0.37-0.45,0.62-0.59c0.25-0.14,0.55-0.21,0.9-0.21c0.17,0,0.31,0.02,0.43,0.05c0.12,0.03,0.24,0.08,0.35,0.14V64.02z    M139.53,67.43c-0.21-0.12-0.43-0.17-0.67-0.17c-0.18,0-0.34,0.04-0.48,0.11c-0.14,0.07-0.25,0.19-0.35,0.36   c-0.1,0.17-0.17,0.38-0.22,0.66c-0.05,0.27-0.08,0.61-0.08,1.01c0,0.78,0.1,1.33,0.31,1.67c0.21,0.34,0.52,0.5,0.93,0.5   c0.08,0,0.17-0.01,0.26-0.02c0.09-0.01,0.19-0.03,0.29-0.06V67.43z"/>
	<path class="st1" d="M145.56,72.08c0,0.4-0.05,0.74-0.16,1.02c-0.1,0.28-0.25,0.5-0.43,0.68c-0.18,0.17-0.39,0.3-0.63,0.38   c-0.24,0.08-0.5,0.12-0.77,0.12c-0.23,0-0.46-0.03-0.69-0.08c-0.23-0.05-0.44-0.13-0.64-0.23l0.19-0.78   c0.13,0.07,0.29,0.14,0.48,0.19c0.19,0.06,0.38,0.09,0.58,0.09c0.35,0,0.63-0.1,0.83-0.3c0.2-0.2,0.3-0.55,0.3-1.04v-0.27   c-0.12,0.05-0.24,0.09-0.37,0.12c-0.13,0.03-0.28,0.05-0.44,0.05c-0.68,0-1.17-0.23-1.49-0.7c-0.31-0.46-0.47-1.12-0.47-1.97   c0-0.45,0.04-0.86,0.12-1.23c0.08-0.36,0.21-0.67,0.39-0.93c0.18-0.26,0.4-0.45,0.69-0.58c0.28-0.13,0.62-0.2,1.03-0.2   c0.27,0,0.53,0.03,0.78,0.08c0.26,0.05,0.48,0.12,0.69,0.21V72.08z M144.63,67.33c-0.1-0.03-0.2-0.05-0.29-0.06   s-0.18-0.02-0.26-0.02c-0.43,0-0.75,0.17-0.94,0.5c-0.2,0.33-0.3,0.87-0.3,1.62c0,0.68,0.1,1.15,0.29,1.43   c0.19,0.28,0.47,0.42,0.83,0.42c0.12,0,0.24-0.01,0.35-0.04c0.11-0.03,0.22-0.07,0.32-0.12V67.33z"/>
	<path class="st1" d="M147.93,69.68c0.01,0.27,0.03,0.52,0.08,0.75c0.04,0.23,0.11,0.42,0.21,0.59c0.1,0.17,0.23,0.3,0.39,0.39   c0.16,0.09,0.37,0.14,0.62,0.14c0.21,0,0.4-0.03,0.58-0.09c0.18-0.06,0.3-0.11,0.38-0.16l0.17,0.74c-0.09,0.07-0.25,0.14-0.47,0.21   c-0.22,0.08-0.48,0.11-0.78,0.11c-0.4,0-0.73-0.07-1-0.22c-0.27-0.14-0.49-0.35-0.66-0.6c-0.17-0.26-0.29-0.57-0.36-0.93   c-0.07-0.36-0.11-0.76-0.11-1.19c0-1.04,0.17-1.81,0.52-2.29c0.35-0.48,0.8-0.72,1.37-0.72c0.64,0,1.09,0.24,1.36,0.72   c0.27,0.48,0.4,1.16,0.4,2.03c0,0.08,0,0.16,0,0.24c0,0.08,0,0.17-0.01,0.25H147.93z M148.87,67.22c-0.31,0-0.53,0.15-0.67,0.46   c-0.14,0.31-0.23,0.72-0.25,1.24h1.72c0-0.52-0.05-0.94-0.16-1.25C149.38,67.37,149.18,67.22,148.87,67.22z"/>
	<path class="st1" d="M159.87,64.76h0.97v7.48h-0.97v-3.48h-2.46v3.48h-0.97v-7.48h0.97v3.16h2.46V64.76z"/>
	<path class="st1" d="M166.16,72.08c-0.09,0.04-0.21,0.07-0.34,0.1c-0.13,0.03-0.27,0.06-0.42,0.09c-0.15,0.03-0.3,0.05-0.44,0.06   c-0.15,0.02-0.28,0.03-0.41,0.03c-0.29,0-0.56-0.03-0.81-0.1c-0.24-0.07-0.45-0.19-0.63-0.36c-0.17-0.17-0.31-0.41-0.4-0.71   c-0.09-0.3-0.14-0.68-0.14-1.13v-3.49h0.93v3.46c0,0.55,0.09,0.94,0.25,1.17c0.17,0.23,0.43,0.34,0.77,0.34   c0.11,0,0.23-0.01,0.35-0.02c0.11-0.01,0.23-0.03,0.36-0.07v-4.88h0.93V72.08z"/>
	<path class="st1" d="M167.88,66.74c0.25-0.08,0.53-0.15,0.82-0.2c0.29-0.05,0.56-0.08,0.81-0.08c0.25,0,0.48,0.03,0.69,0.1   c0.21,0.07,0.39,0.17,0.54,0.32c0.19-0.12,0.39-0.22,0.61-0.3c0.22-0.08,0.45-0.12,0.71-0.12c0.26,0,0.5,0.04,0.71,0.11   c0.21,0.08,0.39,0.2,0.55,0.38c0.15,0.18,0.27,0.42,0.36,0.73c0.09,0.31,0.13,0.69,0.13,1.14v3.42h-0.93v-3.35   c0-0.56-0.07-0.97-0.19-1.23c-0.13-0.26-0.37-0.39-0.74-0.39c-0.14,0-0.28,0.03-0.42,0.08c-0.14,0.05-0.27,0.12-0.39,0.21   c0.06,0.17,0.1,0.35,0.13,0.56c0.03,0.21,0.04,0.44,0.04,0.7v3.42h-0.93v-3.35c0-0.56-0.06-0.97-0.19-1.23   c-0.13-0.26-0.37-0.39-0.73-0.39c-0.19,0-0.4,0.04-0.64,0.11v4.86h-0.93V66.74z"/>
	<path class="st1" d="M175.56,66.69c0.19-0.08,0.38-0.14,0.59-0.19c0.21-0.05,0.44-0.07,0.68-0.07c0.5,0,0.91,0.16,1.23,0.47   c0.32,0.31,0.48,0.8,0.48,1.46v3.76c-0.26,0.07-0.52,0.13-0.79,0.17c-0.27,0.04-0.54,0.07-0.79,0.07c-0.26,0-0.5-0.03-0.73-0.1   c-0.23-0.07-0.42-0.17-0.59-0.31c-0.17-0.14-0.3-0.33-0.4-0.55c-0.1-0.22-0.15-0.49-0.15-0.8c0-0.3,0.05-0.55,0.13-0.77   c0.09-0.22,0.21-0.4,0.37-0.55c0.16-0.15,0.34-0.26,0.56-0.33c0.22-0.08,0.45-0.11,0.7-0.11c0.24,0,0.5,0.03,0.79,0.09V68.4   c0-0.42-0.08-0.71-0.24-0.87c-0.16-0.17-0.39-0.25-0.7-0.25c-0.17,0-0.32,0.02-0.47,0.05c-0.15,0.03-0.3,0.09-0.47,0.16   L175.56,66.69z M176.01,70.59c0,0.33,0.09,0.58,0.26,0.73c0.17,0.16,0.42,0.24,0.73,0.24c0.19,0,0.41-0.03,0.64-0.08v-1.8   c-0.22-0.06-0.43-0.09-0.64-0.09c-0.14,0-0.27,0.02-0.39,0.05c-0.12,0.03-0.23,0.09-0.32,0.16c-0.09,0.08-0.16,0.18-0.21,0.3   C176.03,70.24,176.01,70.4,176.01,70.59z"/>
	<path class="st1" d="M180.22,66.74c0.27-0.08,0.55-0.15,0.86-0.2c0.31-0.05,0.59-0.08,0.85-0.08c0.28,0,0.54,0.04,0.77,0.11   c0.23,0.08,0.43,0.2,0.59,0.38c0.16,0.18,0.29,0.42,0.38,0.73c0.09,0.31,0.14,0.69,0.14,1.14v3.42h-0.93v-3.35   c0-0.56-0.07-0.97-0.22-1.23c-0.14-0.26-0.41-0.39-0.81-0.39c-0.21,0-0.44,0.04-0.7,0.11v4.86h-0.93V66.74z"/>
	<path class="st1" d="M185.94,65.57c-0.17,0-0.31-0.06-0.43-0.17c-0.12-0.11-0.18-0.26-0.18-0.45c0-0.19,0.06-0.34,0.18-0.45   c0.12-0.11,0.26-0.17,0.43-0.17c0.17,0,0.31,0.06,0.43,0.17c0.12,0.11,0.18,0.26,0.18,0.45c0,0.19-0.06,0.34-0.18,0.45   C186.25,65.51,186.11,65.57,185.94,65.57z M186.41,72.24h-0.93v-5.67h0.93V72.24z"/>
	<path class="st1" d="M189.01,66.57h1.43v0.8h-1.43v3.12c0,0.39,0.07,0.66,0.21,0.82c0.14,0.15,0.33,0.23,0.57,0.23   c0.12,0,0.24-0.02,0.35-0.05c0.11-0.04,0.21-0.08,0.29-0.13l0.18,0.74c-0.29,0.17-0.61,0.26-0.94,0.26c-0.53,0-0.93-0.15-1.19-0.45   c-0.26-0.3-0.39-0.79-0.39-1.48v-5.38l0.93-0.16V66.57z"/>
	<path class="st1" d="M192.97,71.07c0.21-0.72,0.4-1.44,0.57-2.17c0.17-0.73,0.34-1.5,0.5-2.32h0.92c-0.11,0.53-0.22,1.04-0.35,1.56   c-0.13,0.51-0.25,1-0.39,1.48c-0.13,0.48-0.27,0.92-0.4,1.35c-0.13,0.42-0.26,0.8-0.37,1.15c-0.14,0.4-0.27,0.74-0.4,1.02   c-0.13,0.28-0.26,0.5-0.41,0.67c-0.15,0.17-0.31,0.29-0.48,0.37c-0.17,0.08-0.38,0.11-0.62,0.11c-0.13,0-0.26-0.02-0.39-0.05   c-0.13-0.03-0.24-0.07-0.33-0.1l0.17-0.76c0.19,0.08,0.36,0.12,0.53,0.12c0.21,0,0.38-0.08,0.51-0.23   c0.13-0.15,0.26-0.38,0.38-0.68l0.11-0.27c-0.14-0.37-0.28-0.79-0.42-1.25c-0.14-0.46-0.28-0.93-0.41-1.43   c-0.13-0.5-0.26-1.01-0.38-1.53c-0.12-0.52-0.23-1.03-0.34-1.53h0.98c0.06,0.34,0.13,0.71,0.21,1.11c0.08,0.4,0.16,0.81,0.25,1.21   c0.09,0.4,0.18,0.79,0.28,1.17C192.8,70.44,192.89,70.78,192.97,71.07z"/>
</g>
<g>
	<path class="st0" d="M46.18,1.07c-4.45,0-8.06,3.62-8.06,8.08c0,4.46,3.61,8.07,8.06,8.07c4.45,0,8.06-3.61,8.06-8.07   C54.24,4.69,50.63,1.07,46.18,1.07z M52,4.23c0.05,0.05,0.1,0.11,0.15,0.16c-0.04-0.04-0.09-0.08-0.13-0.11   c-0.01-0.02-0.02-0.04-0.03-0.06C51.99,4.22,52,4.22,52,4.23z M51.68,3.92c0.1,0.1,0.2,0.2,0.29,0.29   c-0.11-0.11-0.23-0.21-0.36-0.31C51.63,3.91,51.66,3.92,51.68,3.92z M50.4,3.41c0.2,0.06,0.38,0.13,0.56,0.2   c0.01,0.01,0.01,0.02,0.02,0.03c-0.1-0.04-0.2-0.07-0.31-0.1c-0.04,0.01-0.09,0.02-0.13,0.04c0.02,0.03,0.03,0.06,0.05,0.09   c0.05,0.04,0.1,0.07,0.15,0.11c-0.13-0.07-0.26-0.14-0.39-0.22C50.36,3.51,50.38,3.46,50.4,3.41z M50.37,3.7c-0.02,0-0.05,0-0.07,0   c0-0.02,0-0.04-0.01-0.06C50.31,3.67,50.35,3.69,50.37,3.7z M50.18,3.05c0.01,0.02,0.04,0.03,0.05,0.05   c-0.07-0.03-0.14-0.06-0.21-0.09C50.07,3.03,50.12,3.04,50.18,3.05z M48.11,2.45c0.15,0.04,0.29,0.08,0.44,0.13   c-0.06-0.01-0.12-0.01-0.18-0.01c-0.1-0.03-0.22-0.07-0.33-0.09c0.14,0.05,0.28,0.11,0.42,0.17c-0.08-0.01-0.17-0.03-0.25-0.04   c0.02,0,0.03-0.01,0.05-0.01c-0.04-0.02-0.07-0.03-0.1-0.05c-0.06,0.02-0.13,0.04-0.19,0.06c-0.07-0.03-0.14-0.06-0.21-0.08   c-0.01-0.01-0.01-0.02-0.02-0.02c0.03,0,0.06,0,0.09,0c-0.07-0.02-0.15-0.04-0.22-0.06c-0.02-0.02-0.03-0.03-0.05-0.05   C47.74,2.4,47.93,2.42,48.11,2.45z M46.28,3.78c-0.06,0.04-0.12,0.08-0.17,0.12c0.04,0.01,0.08,0.02,0.13,0.03   c0.04,0.05,0.08,0.1,0.12,0.16c0.01,0.06,0.02,0.11,0.02,0.17c0.06,0.02,0.12,0.04,0.19,0.07c-0.05,0.03-0.1,0.07-0.15,0.1   c0.03,0.01,0.06,0.02,0.09,0.02c-0.02,0.01-0.04,0.03-0.07,0.04c-0.24,0.01-0.48,0.01-0.72,0.03c0.12-0.05,0.24-0.1,0.36-0.15   c-0.09-0.01-0.17-0.03-0.26-0.04c0.04-0.01,0.08-0.02,0.12-0.04c0-0.04-0.01-0.08-0.01-0.12c0.05,0.01,0.1,0.01,0.15,0.01   c0.02-0.03,0.04-0.06,0.06-0.09c-0.03-0.01-0.06-0.02-0.09-0.03c0.01-0.02,0.03-0.03,0.04-0.04c-0.05,0-0.11,0.01-0.16,0.02   c0.01-0.03,0.02-0.06,0.04-0.09c-0.05-0.01-0.09-0.02-0.14-0.04c0.03-0.05,0.06-0.09,0.09-0.13c-0.03-0.01-0.07-0.02-0.1-0.03   c0.07-0.03,0.13-0.06,0.19-0.09c0.06,0,0.12,0.01,0.18,0.01c-0.04,0.03-0.08,0.05-0.12,0.08C46.13,3.75,46.2,3.77,46.28,3.78z    M44.66,3.1c-0.04,0-0.08,0-0.12,0c0.06-0.02,0.13-0.03,0.19-0.06c-0.06,0-0.12,0-0.18,0C44.6,3.02,44.66,3,44.71,2.98   C44.74,2.99,44.78,3,44.81,3c-0.01,0.01-0.02,0.03-0.02,0.04c0.15-0.03,0.32-0.06,0.48-0.08c0.06,0.03,0.11,0.05,0.17,0.08   c-0.04,0.02-0.08,0.05-0.11,0.08c-0.14,0.03-0.27,0.05-0.41,0.08c-0.11-0.01-0.22-0.02-0.32-0.03c0.03-0.01,0.06-0.02,0.08-0.03   C44.67,3.12,44.66,3.11,44.66,3.1z M45.43,4.16c-0.03-0.01-0.05-0.02-0.08-0.04c0.02-0.03,0.03-0.05,0.05-0.08   c0.04,0,0.08,0,0.12,0.01c0.02-0.03,0.03-0.05,0.05-0.08c0.07,0,0.15,0.01,0.22,0.01C45.8,4,45.81,4.03,45.82,4.06   c-0.05,0.07-0.09,0.15-0.14,0.22c-0.12,0.02-0.24,0.04-0.36,0.06c-0.02-0.02-0.03-0.05-0.06-0.08C45.32,4.23,45.38,4.19,45.43,4.16   z M41.68,2.98c0,0,0-0.01,0-0.02c0.07-0.05,0.15-0.09,0.23-0.13c0.03,0,0.06,0.01,0.09,0.01c-0.13,0.07-0.26,0.14-0.38,0.21   c-0.01,0-0.02,0-0.02,0C41.63,3.02,41.66,3,41.68,2.98z M41.85,2.95c-0.02,0-0.04,0.01-0.06,0.02c0.06-0.03,0.12-0.07,0.19-0.1   c0.02-0.01,0.04-0.03,0.06-0.05c-0.01,0-0.03,0.01-0.04,0.01c0.03-0.02,0.06-0.04,0.09-0.05C42.05,2.79,42.03,2.8,42,2.81   c-0.01,0-0.01-0.01-0.02-0.01c0.22-0.1,0.46-0.2,0.7-0.29c0.22-0.06,0.44-0.12,0.68-0.16c-0.3,0.09-0.6,0.2-0.87,0.31   c-0.22,0.1-0.42,0.21-0.63,0.33c-0.1,0.03-0.19,0.07-0.29,0.1C41.67,3.05,41.76,3,41.85,2.95z M41.52,3.16   c0.11-0.05,0.23-0.1,0.35-0.14c-0.07,0.04-0.13,0.07-0.19,0.11c-0.11,0.04-0.22,0.09-0.32,0.14c-0.02,0.01-0.04,0.01-0.06,0.02   c0.04-0.03,0.07-0.06,0.11-0.1c-0.03,0.02-0.06,0.03-0.1,0.05c0.02-0.02,0.03-0.03,0.04-0.04c0.05-0.02,0.1-0.04,0.15-0.07   C41.51,3.15,41.52,3.15,41.52,3.16z M41.84,3.1c-0.02,0.01-0.04,0.03-0.05,0.05c-0.04,0.02-0.08,0.03-0.12,0.05   c-0.02,0-0.03,0.01-0.05,0.01c0.02-0.02,0.04-0.04,0.06-0.06C41.73,3.13,41.78,3.12,41.84,3.1z M41.22,3.23   c0.05-0.03,0.11-0.06,0.16-0.09c0.01,0,0.01,0,0.02,0c-0.02,0.01-0.04,0.03-0.06,0.05c0.04-0.03,0.09-0.06,0.13-0.09   c0.01,0,0.02,0,0.04,0c-0.07,0.04-0.14,0.08-0.21,0.13c-0.03,0.01-0.06,0.02-0.09,0.04c0.02-0.01,0.03-0.03,0.05-0.04   C41.25,3.22,41.23,3.23,41.22,3.23z M41.1,3.34c0.01-0.01,0.03-0.02,0.03-0.02c-0.01,0.01-0.02,0.02-0.03,0.04   c-0.01,0.01-0.02,0.01-0.04,0.02C41.08,3.36,41.09,3.35,41.1,3.34z M41.02,3.41c0.01-0.01,0.03-0.01,0.05-0.01   c0.03-0.02,0.06-0.05,0.09-0.07c0.02-0.01,0.05-0.02,0.08-0.04c-0.04,0.04-0.08,0.07-0.13,0.11c-0.03,0.01-0.05,0.03-0.08,0.05   c0-0.01,0.01-0.02,0.02-0.03c-0.02,0.02-0.05,0.03-0.07,0.05C41,3.44,41.01,3.43,41.02,3.41z M40.99,3.52   c-0.03,0.03-0.06,0.06-0.08,0.09c-0.04,0.03-0.08,0.06-0.13,0.09c0-0.01,0-0.03,0.01-0.04c0.09-0.07,0.17-0.13,0.27-0.2   c-0.04,0.03-0.06,0.06-0.1,0.08C40.97,3.53,40.98,3.53,40.99,3.52z M40.82,3.55c0.03-0.03,0.06-0.05,0.09-0.08   C40.91,3.48,40.9,3.49,40.9,3.5c0.01-0.01,0.03-0.01,0.05-0.02c-0.03,0.03-0.06,0.05-0.09,0.08c-0.08,0.06-0.16,0.12-0.23,0.19   c-0.01,0-0.02,0.01-0.02,0.01c0.01-0.02,0.03-0.03,0.05-0.05c-0.03,0.02-0.06,0.05-0.09,0.07c0.04-0.05,0.09-0.09,0.15-0.14   c0.03-0.02,0.06-0.03,0.09-0.05C40.81,3.57,40.82,3.56,40.82,3.55z M40.52,3.8c0.08-0.08,0.17-0.16,0.27-0.24   c-0.09,0.08-0.17,0.15-0.25,0.23c-0.01,0.01-0.02,0.02-0.03,0.02C40.51,3.8,40.52,3.8,40.52,3.8z M40.21,4.17   c0.01-0.02,0.02-0.03,0.03-0.04c0.02-0.02,0.04-0.05,0.06-0.07c0,0,0.01,0,0.01-0.01c0.04-0.05,0.08-0.1,0.12-0.15   c0.02-0.01,0.04-0.03,0.06-0.04c-0.06,0.06-0.12,0.12-0.18,0.19c0.06-0.06,0.11-0.12,0.17-0.17c0.01-0.01,0.02-0.02,0.03-0.03   c-0.01,0.01-0.03,0.03-0.04,0.04c0.04-0.04,0.09-0.07,0.14-0.11c0.04-0.04,0.08-0.07,0.12-0.11c0.01-0.01,0.03-0.02,0.05-0.03   c-0.03,0.03-0.07,0.06-0.1,0.09c-0.03,0.04-0.07,0.07-0.1,0.11c0.02-0.01,0.04-0.02,0.06-0.02c-0.05,0.05-0.1,0.1-0.15,0.14   C40.47,3.98,40.44,3.99,40.43,4c-0.09,0.07-0.17,0.15-0.24,0.23C40.19,4.21,40.21,4.2,40.21,4.17c-0.01,0.02-0.02,0.04-0.04,0.05   C40.19,4.21,40.2,4.19,40.21,4.17z M40.14,4.26c0.01-0.01,0.01-0.01,0.02-0.02c-0.02,0.02-0.04,0.05-0.05,0.07   C40.11,4.3,40.13,4.28,40.14,4.26z M40.3,14.17c-0.02-0.03-0.05-0.06-0.07-0.09c0.02,0.02,0.03,0.04,0.05,0.06   c0.01,0.02,0.02,0.04,0.04,0.06C40.31,14.18,40.3,14.17,40.3,14.17z M41.18,13.66c-0.02,0.02-0.04,0.03-0.05,0.05   c-0.06-0.03-0.13-0.06-0.19-0.09c-0.04,0.01-0.08,0.02-0.11,0.04c-0.02,0.03-0.04,0.06-0.06,0.09c0.02,0.07,0.06,0.15,0.08,0.22   c-0.03,0.11-0.05,0.2-0.06,0.3c-0.04-0.02-0.07-0.04-0.11-0.06c-0.05-0.05-0.1-0.09-0.15-0.14c0.06,0.08,0.13,0.16,0.19,0.23   c0.01,0.04,0.03,0.07,0.04,0.1c-0.04-0.02-0.08-0.03-0.11-0.05c-0.03-0.02-0.06-0.05-0.1-0.08c0.04,0.05,0.08,0.1,0.11,0.15   c-0.04-0.03-0.08-0.07-0.12-0.1c0.02,0.03,0.04,0.05,0.06,0.08c0.03,0.03,0.06,0.05,0.08,0.09c0,0,0,0,0,0c0,0,0,0.01-0.01,0.01   c0.02,0.02,0.03,0.04,0.05,0.06c-0.01,0.01-0.01,0.01-0.02,0.02c0.05,0.05,0.11,0.11,0.16,0.16c0,0.01,0,0.02,0,0.03   c0.01,0.02,0.03,0.03,0.04,0.05l0,0c-0.17-0.17-0.33-0.34-0.49-0.53c0.01,0.01,0.02,0.03,0.02,0.04c-0.01-0.02-0.03-0.04-0.04-0.06   c-0.01-0.01-0.02-0.03-0.04-0.04c0-0.01-0.01-0.02-0.01-0.02c0.01,0.01,0.02,0.02,0.02,0.02c0.01,0.01,0.02,0.02,0.03,0.04   c0,0.01,0.01,0.01,0.02,0.01c-0.01-0.02-0.03-0.03-0.04-0.05c-0.03-0.04-0.06-0.09-0.09-0.13c-0.01-0.01-0.03-0.02-0.04-0.04   c-0.01-0.02-0.03-0.04-0.04-0.06c-0.05-0.08-0.1-0.15-0.15-0.23c-0.04-0.07-0.07-0.15-0.11-0.23c-0.07-0.12-0.13-0.24-0.19-0.37   c-0.08-0.18-0.15-0.38-0.21-0.58c-0.04-0.1-0.07-0.2-0.1-0.3c-0.1-0.16-0.19-0.33-0.28-0.49c-0.07-0.21-0.14-0.42-0.2-0.63   c-0.04-0.1-0.07-0.2-0.1-0.31c-0.01-0.06-0.02-0.11-0.03-0.17c0-0.03,0-0.06,0.01-0.09c-0.01-0.03-0.02-0.06-0.03-0.08   c-0.01-0.04-0.01-0.09-0.02-0.13c0.01-0.03,0.01-0.05,0.01-0.08c0.01-0.1,0.03-0.21,0.05-0.31c-0.02-0.17-0.03-0.33-0.04-0.49   c-0.01-0.03-0.02-0.06-0.03-0.08c-0.01,0.02-0.02,0.05-0.03,0.07c0,0.02,0.01,0.05,0.01,0.07c-0.01,0.01-0.01,0.02-0.02,0.03   c0-0.02,0-0.04,0-0.06c-0.02-0.04-0.04-0.07-0.06-0.11c-0.01-0.05-0.01-0.11-0.01-0.16c0,0-0.01,0-0.01,0c0-0.04,0-0.08,0-0.12   c0-0.08-0.02-0.16-0.03-0.23c-0.01,0-0.02-0.01-0.03-0.01c-0.01-0.09-0.03-0.18-0.04-0.27c-0.01,0.01-0.02,0.02-0.02,0.03   c-0.01-0.02-0.01-0.03-0.01-0.05c0-0.02,0-0.03,0-0.05c0.01-0.13,0.02-0.26,0.03-0.39c0.16-1.42,0.72-2.77,1.53-3.87   c0.01-0.01,0.02-0.02,0.03-0.03c0.03-0.04,0.07-0.07,0.11-0.1c0.01-0.01,0.02-0.03,0.03-0.04c0,0-0.01,0-0.01,0   c0.04-0.04,0.08-0.08,0.13-0.12c0.01,0,0.02,0.01,0.03,0.01c0.03-0.02,0.05-0.04,0.08-0.05c0.03-0.03,0.06-0.06,0.09-0.09   c-0.01,0-0.01,0-0.01,0c0.04-0.03,0.07-0.07,0.11-0.1c0,0.01,0,0.02-0.01,0.04c-0.02,0.02-0.05,0.04-0.07,0.06   c-0.01,0.01-0.03,0.03-0.04,0.04c0,0,0,0.01,0.01,0.01c0.07-0.07,0.14-0.13,0.21-0.2c0-0.01-0.01-0.01-0.01-0.02   c0.06-0.05,0.11-0.1,0.17-0.14c0.04-0.04,0.09-0.09,0.13-0.13c0.04-0.03,0.09-0.06,0.13-0.09c0.03-0.01,0.06-0.03,0.08-0.03   c-0.09,0.06-0.17,0.11-0.25,0.17c-0.02,0.02-0.04,0.04-0.06,0.06c-0.01,0.03-0.03,0.05-0.04,0.08c-0.02,0.02-0.05,0.04-0.07,0.06   c0,0.02,0,0.03,0,0.04c0.03-0.03,0.06-0.05,0.09-0.08c-0.03,0.04-0.07,0.08-0.09,0.13c0.04-0.04,0.09-0.07,0.14-0.11   c0.04-0.04,0.08-0.09,0.13-0.13c0.03-0.01,0.06-0.03,0.1-0.04c0.01,0,0.02,0,0.03,0c-0.05,0.05-0.11,0.09-0.16,0.13   c0.01,0,0.02,0,0.03,0c-0.07,0.06-0.15,0.11-0.22,0.17c-0.03,0.01-0.06,0.02-0.09,0.04c0,0,0,0.01,0,0.01   c-0.04,0.04-0.09,0.08-0.13,0.12c-0.19,0.16-0.37,0.33-0.53,0.49c-0.05,0.06-0.1,0.12-0.15,0.18c0.01,0,0.02,0,0.03,0   c-0.03,0.05-0.06,0.1-0.09,0.15c0.02-0.02,0.04-0.04,0.06-0.06c0.03,0.02,0.04,0.04,0.07,0.06c0.03-0.01,0.06-0.02,0.09-0.03   c-0.05,0.07-0.09,0.14-0.14,0.2c-0.01,0.04-0.02,0.09-0.02,0.13c0.04-0.05,0.08-0.09,0.12-0.14c0.04-0.07,0.08-0.15,0.11-0.21   c0.07-0.06,0.14-0.13,0.21-0.19c0.04-0.06,0.08-0.13,0.13-0.2c-0.01-0.01-0.01-0.01-0.02-0.02c0.04-0.03,0.08-0.07,0.11-0.1   c0.06-0.07,0.12-0.15,0.17-0.22c0.07-0.03,0.14-0.07,0.22-0.1c0.01,0.01,0.03,0.02,0.04,0.03c-0.01,0.01-0.03,0.02-0.04,0.03   c0.03,0,0.05-0.01,0.08-0.01c-0.04,0.05-0.08,0.1-0.12,0.15c0,0.02,0,0.05,0.01,0.07c0.11-0.09,0.22-0.17,0.33-0.26   c-0.02,0.08-0.04,0.16-0.05,0.24c-0.03,0.03-0.06,0.06-0.09,0.09c0.01,0.02,0.01,0.05,0.01,0.07c0.04,0.01,0.08,0.02,0.12,0.03   c-0.03,0.02-0.05,0.03-0.08,0.05c0.03,0.02,0.06,0.04,0.09,0.06c-0.02,0.04-0.04,0.07-0.06,0.11c-0.14,0.09-0.27,0.18-0.4,0.27   c-0.13,0.04-0.26,0.07-0.38,0.12c-0.14,0.13-0.28,0.27-0.41,0.41c0.07-0.07,0.14-0.14,0.21-0.2c0.07-0.05,0.15-0.1,0.22-0.15   c0,0.02,0,0.04,0.01,0.06c-0.05,0.02-0.09,0.05-0.14,0.08c0.02,0,0.04,0,0.06,0.01c-0.03,0.05-0.05,0.1-0.07,0.16   c0.03,0,0.06,0,0.09,0.01c-0.02-0.02-0.03-0.04-0.05-0.06c0.04-0.01,0.08-0.01,0.12-0.02c-0.02,0.03-0.04,0.05-0.06,0.07   c0.01,0,0.03,0,0.04,0c0.04-0.05,0.08-0.1,0.13-0.15c0,0.03,0,0.06-0.01,0.09c-0.16,0.12-0.31,0.24-0.46,0.36c0-0.02,0-0.04,0-0.06   c0.06-0.05,0.12-0.11,0.17-0.16c-0.01-0.01-0.01-0.01-0.02-0.02c-0.13,0.1-0.26,0.2-0.38,0.3c-0.04,0.05-0.07,0.1-0.11,0.16   c0.01,0.02,0.01,0.04,0.01,0.06C39.82,5.95,39.75,6,39.68,6.05c-0.03,0.06-0.14,0.11-0.17,0.17c-0.01,0.01-0.07,0.02-0.1,0.03   c0.02,0.02,0.05,0.05,0.04,0.07c-0.03,0.04-0.01,0.09-0.04,0.13c0.01-0.03,0.02-0.05,0.03-0.07c0-0.01,0-0.01,0-0.02   c0.02-0.04,0.04-0.08,0.06-0.12c0.01-0.01,0.01-0.02,0.01-0.03c-0.02,0.05-0.05,0.11-0.08,0.16c-0.02,0.08-0.03,0.15-0.05,0.23   c0,0-0.01,0-0.01,0c-0.01,0.02-0.01,0.04-0.02,0.05c-0.09,0.12-0.17,0.23-0.24,0.35c-0.03,0.05-0.05,0.11-0.07,0.16   C39.02,7.3,39,7.44,38.98,7.57c-0.02,0.07-0.04,0.13-0.06,0.19c0-0.06,0-0.13,0-0.19c0.01-0.07,0.03-0.13,0.04-0.2   c0-0.03,0-0.06,0-0.09c-0.01,0.02-0.03,0.03-0.04,0.05c0-0.02,0-0.05,0-0.07c-0.01,0.01-0.03,0.03-0.04,0.04   c-0.01-0.01-0.02-0.01-0.03-0.02c-0.01,0.01-0.01,0.03-0.02,0.04c0.01,0,0.02-0.01,0.02-0.01c-0.01,0.04-0.02,0.07-0.03,0.1   c-0.01,0-0.02,0-0.03,0c0-0.02,0.01-0.04,0.01-0.06c-0.02,0.02-0.03,0.04-0.05,0.06c0.01-0.01,0.01-0.03,0.01-0.04   c-0.03,0.07-0.05,0.14-0.07,0.21c-0.04,0.16-0.06,0.32-0.09,0.48c-0.01,0.09-0.02,0.19-0.03,0.29c0,0.03,0,0.07,0,0.1   c0.02-0.01,0.03-0.02,0.05-0.03c0.01-0.08,0.03-0.16,0.05-0.25c0.01,0,0.04-0.01,0.05-0.02c-0.04,0.17-0.07,0.35-0.1,0.52   c0,0.01,0,0.03,0.01,0.04c0.02-0.01,0.04-0.01,0.06-0.02c0.01,0.03,0.02,0.06,0.02,0.08c-0.01,0.13-0.02,0.26-0.03,0.39   c0.01,0.08,0.02,0.15,0.03,0.23c0.02-0.01,0.05-0.01,0.07-0.02c0.02,0.07,0.04,0.14,0.07,0.21c0.01-0.1,0.03-0.2,0.05-0.3   c0.02-0.01,0.04-0.01,0.05-0.02c0.02-0.04,0.04-0.08,0.07-0.12c0,0.01,0.01,0.03,0.01,0.04C39.02,9.22,39.01,9.23,39,9.26   c0,0.09,0,0.18,0,0.27c0,0,0.01-0.01,0.02-0.01c0-0.06,0-0.13-0.01-0.19c0.02-0.04,0.04-0.08,0.06-0.12   c0.02,0.07,0.04,0.14,0.06,0.22c0.04,0.02,0.09,0.05,0.13,0.08c0.03-0.01,0.06-0.02,0.09-0.02v0c0.01-0.01,0.03-0.01,0.04-0.01   c-0.01,0-0.03,0.01-0.04,0.01c0.01,0.03,0.02,0.06,0.03,0.1c0.02,0.01,0.04,0.03,0.06,0.04c0,0.04,0,0.09,0,0.13   c0.01,0,0.03,0,0.04-0.01c0.03,0.05,0.05,0.09,0.08,0.15c0,0.03,0,0.07,0,0.1c0.03,0.04,0.06,0.08,0.09,0.13   c0.06,0.03,0.13,0.07,0.2,0.1c0.06,0.09,0.12,0.18,0.17,0.27c0.01,0.08,0.03,0.17,0.04,0.25c0.01,0.01,0.03,0.02,0.04,0.03   c-0.03,0.11-0.05,0.22-0.08,0.32c0.01,0,0.02-0.01,0.04-0.02c0.01,0.03,0.01,0.06,0.02,0.09c0-0.05,0-0.1,0-0.14   c0.03,0,0.06,0,0.09,0c0.01,0.01,0.03,0.02,0.04,0.03c0,0.05,0,0.1,0.01,0.15c0-0.03,0.01-0.05,0.01-0.09c0.02,0,0.05,0,0.07,0   c0.06,0.05,0.12,0.11,0.19,0.16c0.01,0.06,0.02,0.11,0.03,0.17c0.03,0,0.05-0.01,0.08-0.02c0.09,0.05,0.19,0.09,0.28,0.14   c0.09,0.12,0.19,0.24,0.28,0.36c0.05,0.02,0.09,0.04,0.14,0.06c0.03,0.13,0.06,0.25,0.09,0.37c-0.1,0.17-0.18,0.33-0.26,0.48   c0.02,0.15,0.04,0.3,0.07,0.45C41.19,13.42,41.18,13.54,41.18,13.66z M40.76,3.98c-0.05,0.04-0.1,0.07-0.14,0.11   c0.01-0.01,0.02-0.03,0.03-0.04c-0.02,0.01-0.03,0.02-0.05,0.03c0.09-0.08,0.18-0.17,0.27-0.25c0,0.03,0.01,0.06,0.02,0.09   c-0.02,0.02-0.05,0.04-0.07,0.06C40.79,3.98,40.77,3.98,40.76,3.98z M40.81,4.04c-0.03,0.03-0.06,0.05-0.08,0.08   c0.02-0.02,0.03-0.04,0.05-0.06C40.79,4.05,40.8,4.04,40.81,4.04z M40.32,4.64c0.02-0.02,0.04-0.04,0.06-0.05   c-0.01,0.01-0.02,0.01-0.03,0.02c0.02-0.02,0.04-0.03,0.06-0.05c-0.02,0.03-0.04,0.05-0.06,0.08c0.01-0.01,0.02-0.02,0.03-0.04   C40.35,4.61,40.33,4.62,40.32,4.64z M40.1,4.92c-0.01,0.01-0.01,0.03-0.02,0.04c-0.01,0-0.02,0-0.03,0   C40.06,4.95,40.08,4.93,40.1,4.92z M41.15,4.79c0,0.02,0,0.04,0,0.07c0.04-0.01,0.07-0.01,0.11-0.01   c-0.02,0.03-0.04,0.05-0.06,0.08c0.02-0.01,0.04-0.01,0.06-0.02c-0.04,0.03-0.07,0.07-0.12,0.1c0.03-0.02,0.06-0.03,0.08-0.05   c-0.03,0.05-0.06,0.1-0.09,0.16c-0.02,0-0.04,0-0.06-0.01c0.01-0.02,0.03-0.03,0.04-0.05C41.08,5.08,41.03,5.1,41,5.13   c-0.01,0-0.02,0-0.03,0c0.02-0.02,0.04-0.05,0.07-0.07c-0.08,0.02-0.16,0.03-0.24,0.05c0.01-0.02,0.02-0.03,0.02-0.05   c0.13-0.13,0.25-0.27,0.39-0.4c0.03-0.01,0.06-0.03,0.09-0.04c-0.07,0.07-0.14,0.14-0.21,0.21C41.1,4.82,41.12,4.8,41.15,4.79z    M39.32,8.54c-0.02,0.01-0.04,0.01-0.07,0.02c0-0.02,0-0.04,0.01-0.06C39.28,8.51,39.3,8.53,39.32,8.54z M38.91,8.32   c0.01-0.03,0.01-0.06,0.02-0.09c0,0-0.01,0-0.02,0c0-0.03,0-0.06,0-0.09c-0.02-0.02-0.05-0.04-0.07-0.06   c0.01-0.01,0.01-0.03,0.01-0.04c-0.01,0-0.02-0.01-0.02-0.02c-0.02,0.03-0.04,0.06-0.06,0.09c0.01-0.04,0.03-0.07,0.04-0.1   c0.02-0.01,0.04-0.02,0.05-0.04c0.04,0.11,0.09,0.22,0.16,0.33C38.98,8.31,38.95,8.32,38.91,8.32z M38.93,8.54   c-0.02-0.01-0.04-0.03-0.05-0.04c0.01-0.01,0.01-0.02,0.02-0.03C38.9,8.49,38.91,8.51,38.93,8.54z M39.06,8.47   c0-0.04-0.01-0.08-0.02-0.12c0.01-0.01,0.01-0.02,0.01-0.02c0.04,0.01,0.08,0.02,0.12,0.03c0.01,0.05,0.03,0.09,0.04,0.14   c-0.01,0.02-0.01,0.03-0.02,0.05c-0.03-0.02-0.05-0.03-0.07-0.05c-0.01,0.03-0.03,0.06-0.04,0.09c-0.01-0.02-0.01-0.04-0.01-0.06   c-0.03-0.01-0.06-0.03-0.08-0.04C39.01,8.49,39.03,8.48,39.06,8.47z M41.4,15.24c-0.02-0.02-0.04-0.04-0.07-0.05   c-0.01-0.01-0.02-0.03-0.03-0.04c0.01,0.01,0.02,0.02,0.04,0.02c0.04,0.03,0.08,0.06,0.12,0.09C41.44,15.26,41.42,15.25,41.4,15.24   z M41.78,3.52c-0.02-0.02-0.05-0.04-0.07-0.06c-0.02,0.02-0.04,0.04-0.07,0.06c0,0.04,0,0.08,0,0.12   c-0.05,0.03-0.09,0.05-0.14,0.09c-0.03-0.01-0.06-0.02-0.09-0.02c0.01,0.03,0.02,0.06,0.02,0.08c-0.04,0.02-0.07,0.03-0.11,0.05   c-0.03-0.03-0.07-0.05-0.09-0.07c-0.07,0.02-0.15,0.04-0.22,0.06c0.04-0.03,0.08-0.06,0.11-0.09c0.06-0.03,0.13-0.06,0.19-0.09   c0-0.01,0-0.02,0-0.03c0.07-0.04,0.13-0.08,0.19-0.13c0.01-0.02,0.03-0.04,0.04-0.06c-0.01-0.01-0.02-0.02-0.03-0.03   c-0.03,0.02-0.06,0.03-0.08,0.05c0.02-0.02,0.05-0.04,0.07-0.06c-0.01-0.01-0.02-0.02-0.03-0.03c-0.05,0.03-0.09,0.06-0.13,0.09   c-0.07,0.03-0.14,0.05-0.21,0.08c-0.01-0.02-0.02-0.03-0.03-0.05c0.1-0.07,0.19-0.14,0.29-0.21c0.04-0.02,0.08-0.04,0.12-0.06   c-0.06,0.04-0.13,0.08-0.19,0.12c-0.02,0.02-0.04,0.04-0.06,0.06c0,0,0.01,0,0.01,0.01c0.04-0.03,0.07-0.07,0.11-0.1   c0.06-0.03,0.11-0.07,0.17-0.1c0.02-0.01,0.04-0.01,0.06-0.02c-0.04,0.03-0.08,0.07-0.12,0.11c0.11-0.05,0.22-0.1,0.34-0.15   c-0.02,0.02-0.04,0.03-0.05,0.05c0.03-0.01,0.07-0.02,0.11-0.02c0.02,0.01,0.04,0.03,0.07,0.04c-0.02,0.01-0.04,0.02-0.05,0.04   c0.01,0,0.02,0.01,0.02,0.01c-0.04,0.02-0.08,0.05-0.12,0.07c0.04-0.01,0.08-0.01,0.12-0.02c0.03,0.01,0.06,0.03,0.09,0.05   C41.96,3.4,41.87,3.46,41.78,3.52z M41.29,3.59c0.01-0.01,0.02-0.02,0.02-0.03c0.03-0.02,0.05-0.04,0.08-0.06c0.02,0,0.03,0,0.05,0   c-0.03,0.02-0.06,0.05-0.09,0.07C41.34,3.57,41.32,3.58,41.29,3.59z M43.16,3.32c-0.06,0.03-0.12,0.06-0.18,0.08   c0,0.02-0.01,0.04-0.01,0.05c-0.1,0.07-0.2,0.14-0.3,0.21c-0.08-0.03-0.17-0.05-0.24-0.07c0.01-0.11,0.03-0.21,0.04-0.31   c0.06-0.06,0.12-0.11,0.17-0.17c0.08-0.04,0.17-0.08,0.25-0.12c0.01-0.01,0.01-0.02,0.02-0.03C42.83,2.98,42.75,3,42.67,3.02   C42.71,3,42.75,2.97,42.8,2.94c0.05-0.01,0.1-0.01,0.15-0.02c-0.01-0.02-0.02-0.04-0.03-0.06c-0.05,0.01-0.1,0.03-0.15,0.04   c0.05-0.04,0.11-0.09,0.16-0.13c0-0.03,0.01-0.06,0.02-0.09c-0.17,0.03-0.33,0.07-0.49,0.11c-0.01,0-0.02,0-0.03,0   c0.02-0.01,0.03-0.01,0.05-0.02c-0.02,0-0.05,0.01-0.08,0.01c0.06-0.02,0.11-0.04,0.16-0.06c-0.05,0-0.1,0.01-0.14,0.02   c0.15-0.06,0.29-0.12,0.45-0.17c0.04-0.02,0.07-0.04,0.11-0.06c-0.04,0.01-0.09,0.02-0.13,0.03c0.14-0.05,0.28-0.1,0.42-0.15   c0.34-0.09,0.69-0.16,1.05-0.22c0.31-0.04,0.63-0.06,0.96-0.08c0.13,0.01,0.26,0.02,0.39,0.03c-0.04,0-0.08,0.01-0.12,0.02   c0.1,0,0.2,0.01,0.31,0.01c0.09,0.01,0.18,0.02,0.28,0.03c-0.2,0.02-0.4,0.05-0.59,0.08c-0.01,0.03-0.02,0.06-0.02,0.1   c-0.07,0-0.14,0-0.21,0.01c0.03,0.02,0.06,0.03,0.09,0.04c-0.03,0.02-0.06,0.04-0.1,0.06c0.03,0,0.06,0,0.09,0   c-0.07,0.01-0.15,0.02-0.22,0.04c0.02,0.01,0.04,0.02,0.06,0.03c-0.05,0.01-0.1,0.02-0.15,0.03c-0.01,0.02-0.03,0.03-0.04,0.05   c-0.06-0.01-0.11-0.01-0.17-0.02c0.05,0.02,0.1,0.04,0.16,0.06C45.03,2.66,45.01,2.68,45,2.7c-0.08-0.01-0.16-0.02-0.24-0.03   c-0.04,0.02-0.08,0.04-0.12,0.06c0.07,0.01,0.15,0.01,0.22,0.02c-0.26,0.05-0.53,0.1-0.78,0.16c-0.13,0.05-0.26,0.11-0.38,0.16   c-0.15,0.03-0.3,0.07-0.44,0.11C43.22,3.23,43.19,3.27,43.16,3.32z M50.7,13.89c-0.02,0.02-0.03,0.04-0.05,0.05   c-0.01-0.01-0.01-0.02-0.02-0.03c-0.19,0.31-0.39,0.6-0.59,0.88c-0.02,0.02-0.03,0.03-0.05,0.05c-0.07,0.02-0.13,0.04-0.2,0.06   c-0.01-0.02-0.02-0.04-0.03-0.05c0.02-0.07,0.04-0.14,0.07-0.22c0.06-0.06,0.12-0.13,0.18-0.19c0.02-0.08,0.04-0.16,0.06-0.24   c0.04-0.04,0.07-0.08,0.11-0.13c0.11-0.06,0.22-0.13,0.32-0.19c0.02-0.04,0.04-0.08,0.06-0.12c0.03-0.01,0.06-0.03,0.09-0.04   c0.03-0.05,0.06-0.1,0.1-0.15C50.73,13.67,50.72,13.79,50.7,13.89z M53.13,11.21c-0.01,0.01-0.03,0.01-0.04,0.02   c0.01-0.07,0.02-0.14,0.02-0.22c0.01-0.06,0.03-0.12,0.04-0.19c0,0.01,0.01,0.02,0.01,0.03c0,0.07,0,0.13,0.01,0.2   C53.16,11.1,53.15,11.16,53.13,11.21z M53.79,9.71c-0.01,0.14-0.03,0.28-0.04,0.42c-0.03,0.21-0.06,0.42-0.11,0.63   c-0.03,0.13-0.1,0.26-0.16,0.38c0,0,0.01,0,0.01,0.01c0,0.08-0.01,0.16-0.02,0.23c0,0.02,0,0.04,0,0.05   c-0.04,0.12-0.07,0.23-0.12,0.34c0.03-0.11,0.06-0.23,0.08-0.35c0.01-0.08,0.02-0.17,0.03-0.25c-0.02,0.04-0.04,0.08-0.05,0.13   c-0.01,0.02-0.11,0.04-0.11,0.06c0-0.02,0-0.04,0-0.05c0-0.1,0.14-0.21,0.16-0.31c0-0.04,0.05-0.07,0.05-0.11   c0.03-0.13,0.07-0.27,0.1-0.4c0.01-0.12,0.03-0.23,0.04-0.35c0-0.02,0-0.04,0-0.06c-0.01,0.04-0.02,0.08-0.03,0.11   c0-0.01-0.01-0.02-0.01-0.03c0.01-0.09,0.02-0.18,0.02-0.27c0-0.13-0.02-0.27-0.03-0.4c-0.01,0.03-0.02,0.06-0.03,0.09   c-0.01,0.01-0.03,0.02-0.04,0.03c0-0.02,0-0.04,0-0.06c-0.01,0.02-0.02,0.05-0.03,0.07c-0.01,0.05-0.02,0.1-0.02,0.15   c-0.05,0.12-0.1,0.25-0.15,0.37c-0.02,0.02-0.04,0.04-0.05,0.05c-0.03,0.2-0.06,0.4-0.09,0.6c-0.04,0.08-0.08,0.16-0.12,0.24   c-0.01-0.03-0.01-0.06-0.02-0.09c0.01-0.27-0.01-0.54-0.02-0.83C53,9.88,53,9.66,53,9.43c-0.01,0.05-0.03,0.1-0.05,0.14   c-0.02,0.01-0.03,0.01-0.05,0.01c-0.02-0.06-0.04-0.13-0.07-0.19c0.02-0.03,0.04-0.05,0.06-0.08c-0.02,0-0.04,0.01-0.06,0.01   c-0.04-0.11-0.09-0.22-0.13-0.34c-0.09-0.01-0.18-0.02-0.27-0.03c-0.09-0.04-0.19-0.1-0.29-0.14c-0.02-0.06-0.03-0.11-0.04-0.17   c-0.07,0-0.14,0.01-0.21,0.01c-0.06-0.07-0.12-0.14-0.18-0.21c-0.04-0.1-0.07-0.2-0.11-0.29c-0.04-0.04-0.08-0.08-0.12-0.12   c-0.03,0.05-0.06,0.09-0.09,0.14c0.09,0.21,0.18,0.42,0.26,0.63c0.01-0.04,0.02-0.07,0.03-0.11c0.02,0.01,0.03,0.03,0.04,0.04   c-0.01,0.07-0.02,0.13-0.03,0.2c0.08,0.02,0.15,0.03,0.23,0.05c0.05-0.08,0.1-0.16,0.14-0.24c0,0.06,0.01,0.12,0.01,0.19   c0.08,0.11,0.16,0.23,0.23,0.34c-0.05,0.1-0.09,0.2-0.14,0.3c0,0.04,0,0.08,0,0.12c-0.08,0.09-0.15,0.18-0.24,0.27   c-0.05,0.02-0.1,0.03-0.15,0.05c-0.02,0.04-0.04,0.08-0.06,0.12c-0.15,0.1-0.3,0.19-0.46,0.29c-0.11,0.02-0.22,0.04-0.34,0.06   c-0.01-0.2-0.03-0.41-0.05-0.61c-0.09-0.2-0.18-0.4-0.28-0.6C50.57,9.14,50.55,9,50.53,8.85c-0.12-0.23-0.25-0.46-0.38-0.69   c0.01-0.07,0.02-0.15,0.03-0.22c-0.03,0.08-0.06,0.16-0.09,0.25c-0.05-0.12-0.11-0.24-0.17-0.36c0.12,0.38,0.22,0.76,0.33,1.13   C50.3,9,50.33,9.04,50.37,9.08c0.01,0.17,0.03,0.35,0.04,0.52c0.03,0.04,0.06,0.07,0.1,0.11c0.02,0.12,0.04,0.24,0.06,0.36   c0.11,0.16,0.22,0.32,0.32,0.47c-0.02,0.04-0.03,0.07-0.05,0.11c0.05,0.06,0.1,0.13,0.15,0.19c0.19-0.07,0.37-0.14,0.53-0.21   c0.02,0.01,0.03,0.02,0.05,0.03c-0.01,0.06-0.02,0.12-0.04,0.18c-0.13,0.28-0.27,0.56-0.41,0.83c-0.27,0.3-0.56,0.59-0.86,0.88   c-0.09,0.16-0.18,0.31-0.27,0.46c0.01,0.17,0.02,0.34,0.03,0.5c-0.05,0.17-0.1,0.34-0.16,0.5c-0.24,0.19-0.49,0.37-0.75,0.55   c-0.01,0.07-0.01,0.15-0.02,0.22c-0.03,0.06-0.06,0.12-0.1,0.18c-0.08,0.04-0.17,0.08-0.26,0.11c-0.06,0.09-0.11,0.17-0.16,0.26   c-0.17,0.12-0.34,0.23-0.51,0.34c-0.13,0.04-0.27,0.09-0.4,0.13c-0.06,0-0.13,0-0.19,0c-0.08,0.02-0.17,0.04-0.26,0.05   c-0.05-0.01-0.11-0.02-0.16-0.03c-0.01-0.03-0.01-0.06-0.03-0.1c0.02-0.02,0.04-0.04,0.06-0.06c-0.07-0.11-0.14-0.22-0.21-0.34   c0-0.14,0.01-0.29,0.01-0.44c-0.08-0.15-0.15-0.3-0.23-0.46c0.06-0.16,0.12-0.32,0.18-0.49c0.07-0.08,0.13-0.16,0.2-0.24   c-0.04-0.24-0.08-0.5-0.11-0.76c-0.12-0.21-0.25-0.43-0.37-0.66c0.03-0.04,0.06-0.08,0.09-0.11c0.04-0.15,0.08-0.3,0.13-0.45   c-0.02-0.04-0.04-0.09-0.06-0.13c-0.02-0.03-0.04-0.06-0.06-0.09c-0.13,0-0.26,0-0.39,0c-0.08-0.12-0.16-0.24-0.23-0.36   c-0.13,0.01-0.25,0.01-0.38,0.01c-0.15,0.05-0.31,0.11-0.46,0.16c-0.11-0.03-0.2-0.08-0.31-0.11c-0.14,0.04-0.29,0.07-0.42,0.1   c-0.04-0.01-0.07-0.03-0.11-0.05c-0.19-0.2-0.38-0.39-0.56-0.59c-0.01-0.07-0.02-0.14-0.03-0.21c-0.08-0.15-0.17-0.31-0.25-0.46   c-0.05-0.03-0.1-0.05-0.15-0.08c0.01-0.08,0.02-0.17,0.03-0.26c-0.03-0.04-0.05-0.09-0.08-0.13c0.05-0.05,0.1-0.1,0.14-0.15   c0.03-0.11,0.06-0.23,0.09-0.34c-0.01-0.22-0.01-0.43-0.02-0.65c0.21-0.29,0.41-0.57,0.63-0.86c0.06-0.01,0.12-0.02,0.19-0.04   c0.08-0.07,0.16-0.14,0.25-0.21c0.05-0.14,0.1-0.28,0.15-0.42c0.11-0.06,0.23-0.13,0.34-0.2c0.05-0.09,0.11-0.17,0.16-0.25   c0.14,0.04,0.28,0.09,0.42,0.13c0.16-0.06,0.31-0.11,0.47-0.17c0.36,0,0.72-0.01,1.08,0c0.03,0.03,0.06,0.07,0.09,0.1   c0.03-0.01,0.06-0.02,0.08-0.03c-0.02,0.03-0.05,0.06-0.07,0.08c0.02,0.06,0.04,0.12,0.05,0.18c-0.04,0.07-0.08,0.13-0.13,0.19   c0.22,0.1,0.43,0.21,0.65,0.31c0.01,0.04,0.02,0.08,0.03,0.12c0.13,0.08,0.26,0.15,0.38,0.23c0.05-0.01,0.11-0.02,0.16-0.03   c0.01-0.07,0.02-0.15,0.03-0.23c0.07-0.02,0.14-0.05,0.21-0.07c0.13,0.09,0.27,0.17,0.4,0.26c0.15,0.06,0.29,0.11,0.44,0.17   c0.08-0.02,0.16-0.04,0.24-0.06c0.04,0.04,0.08,0.07,0.11,0.11c0.08-0.02,0.16-0.03,0.23-0.05c0.04-0.14,0.09-0.27,0.13-0.4   c0-0.12,0-0.23,0-0.34c-0.11,0.02-0.21,0.04-0.32,0.07c-0.06-0.05-0.11-0.1-0.16-0.14c-0.05,0.02-0.1,0.04-0.15,0.06   c-0.1-0.06-0.19-0.11-0.29-0.17c0-0.05,0-0.09,0-0.14c-0.04-0.02-0.07-0.04-0.1-0.06c0.02,0,0.05-0.01,0.07-0.01   c-0.03-0.07-0.06-0.15-0.1-0.22c0.03-0.01,0.06-0.04,0.09-0.05c0.07,0.01,0.14,0.03,0.21,0.04c0.01-0.01,0.03-0.02,0.04-0.03   c-0.01-0.02-0.03-0.04-0.05-0.05c0-0.01,0-0.02,0-0.04c0.02,0.02,0.05,0.03,0.08,0.04c0.18,0,0.34,0,0.51-0.01   c0.08,0.06,0.16,0.12,0.23,0.19c0.08,0.02,0.17,0.04,0.25,0.06c0.04-0.03,0.17-0.06,0.22-0.09c-0.16-0.17-0.4-0.34-0.4-0.51   c0-0.01,0-0.02,0-0.03c0,0-0.07,0.01-0.06,0.01c0.02-0.03,0.01-0.06,0.02-0.09c-0.02-0.02-0.06-0.05-0.08-0.07   c0.05,0,0.08-0.01,0.13-0.01c-0.05-0.01-0.11-0.03-0.16-0.04c-0.09,0.02-0.18,0.05-0.27,0.07c0.04,0.04,0.08,0.07,0.12,0.11   c0.03,0,0.07,0.02,0.1,0.02c0,0.01,0,0.02,0,0.03c-0.08,0-0.17,0.01-0.25,0.02c-0.04-0.05-0.08-0.1-0.13-0.16   c0.03-0.01,0.06-0.03,0.09-0.05c-0.05-0.04-0.11-0.08-0.16-0.12c-0.04-0.01-0.08-0.02-0.12-0.03c-0.04,0.03-0.08,0.05-0.11,0.08   c-0.06,0.12-0.12,0.25-0.18,0.37c0.04,0.06,0.09,0.12,0.13,0.18c0.01,0.01,0.02,0.01,0.03,0.01c0,0.01-0.01,0.02-0.01,0.03   c-0.04,0-0.09-0.02-0.14-0.02c-0.04,0.04-0.09,0.07-0.13,0.11c0.01-0.03,0.03-0.05,0.04-0.08c-0.03-0.02-0.06-0.04-0.09-0.06   c-0.05-0.01-0.11-0.02-0.16-0.04c-0.02,0.03-0.04,0.06-0.07,0.09c-0.04-0.03-0.08-0.05-0.11-0.08c0.08,0.13,0.15,0.27,0.23,0.4   C49,6.51,48.98,6.5,48.96,6.48c0,0.03,0,0.05,0,0.08c-0.11-0.05-0.22-0.1-0.33-0.16c-0.07-0.1-0.13-0.21-0.2-0.31   c0-0.07,0.01-0.14,0.01-0.2c-0.16-0.13-0.33-0.25-0.49-0.38c-0.01-0.04-0.02-0.09-0.03-0.14c-0.02-0.02-0.04-0.04-0.07-0.05   c-0.02,0.02-0.03,0.04-0.05,0.06c-0.02-0.04-0.05-0.09-0.08-0.13c-0.03,0-0.07,0.01-0.1,0.01c0,0.06,0,0.11,0,0.16   c0.07,0.09,0.14,0.19,0.21,0.29c0.08,0.03,0.15,0.07,0.23,0.1c0.09,0.09,0.18,0.18,0.27,0.27c-0.06-0.03-0.12-0.05-0.18-0.07   c0,0.07,0.01,0.14,0.01,0.2c-0.04,0.05-0.08,0.09-0.12,0.14c-0.01-0.1-0.02-0.2-0.03-0.3c-0.18-0.13-0.36-0.27-0.54-0.4   c-0.03-0.08-0.06-0.16-0.09-0.24c-0.05-0.02-0.1-0.04-0.16-0.07c-0.09,0.04-0.18,0.09-0.28,0.13c-0.09-0.03-0.19-0.06-0.28-0.09   c-0.04,0.02-0.09,0.04-0.13,0.06c0,0.05,0,0.09,0,0.14c-0.09,0.03-0.18,0.07-0.28,0.11c-0.06,0.06-0.13,0.12-0.19,0.19   c0.02,0.04,0.03,0.08,0.06,0.11c-0.12,0.09-0.23,0.17-0.35,0.26c-0.14,0.02-0.28,0.04-0.42,0.07c-0.05-0.06-0.11-0.12-0.16-0.18   c-0.08,0-0.16,0-0.24,0.01c0.06-0.29,0.13-0.58,0.19-0.85c0.04-0.02,0.08-0.04,0.12-0.06c0.25,0.02,0.51,0.04,0.76,0.07   c0.03-0.11,0.05-0.22,0.08-0.33c-0.11-0.11-0.22-0.21-0.33-0.3c0.12,0,0.24,0.01,0.36,0.02c-0.01-0.04-0.02-0.09-0.02-0.13   c0.07,0.02,0.14,0.04,0.2,0.06c0.19-0.12,0.38-0.24,0.57-0.36c0.04,0.02,0.08,0.03,0.12,0.05c-0.01-0.03-0.02-0.06-0.04-0.09   c0.11,0.01,0.21,0.01,0.32,0.02c0.02-0.04,0.04-0.07,0.06-0.1c-0.03-0.07-0.05-0.14-0.08-0.22c0.02-0.02,0.04-0.03,0.06-0.05   c0.06-0.01,0.12-0.02,0.18-0.03c0.01,0.05,0.02,0.1,0.02,0.14c-0.05,0.03-0.1,0.07-0.15,0.1c0.05,0.04,0.09,0.09,0.13,0.14   c0.09-0.02,0.18-0.03,0.27-0.04c0,0.02-0.01,0.03-0.01,0.05c0.03,0.01,0.06,0.03,0.1,0.05C48,4.31,48.12,4.3,48.26,4.29   c0.03,0.02,0.06,0.05,0.1,0.07c0.04-0.02,0.09-0.04,0.13-0.06c0.02-0.08,0.05-0.15,0.07-0.23c0.08,0.03,0.16,0.06,0.25,0.09   c-0.04-0.07-0.07-0.13-0.11-0.2c0.19,0.02,0.38,0.05,0.56,0.07C49.19,4,49.14,3.96,49.08,3.92c-0.13-0.01-0.27-0.03-0.4-0.04   c-0.07-0.04-0.13-0.07-0.2-0.1c0-0.07,0-0.13,0-0.2c0.09-0.03,0.18-0.07,0.27-0.1c-0.03-0.03-0.05-0.06-0.08-0.08   c-0.05-0.01-0.11-0.02-0.17-0.04c-0.03,0.02-0.07,0.04-0.1,0.06c0.02,0.01,0.04,0.02,0.06,0.03c-0.11,0.04-0.23,0.07-0.35,0.11   c0,0.04,0,0.08,0,0.12c0.05,0.04,0.11,0.08,0.16,0.12c-0.06,0.03-0.12,0.05-0.18,0.08c-0.02,0.07-0.05,0.14-0.08,0.22   c-0.1,0.01-0.19,0.02-0.28,0.03C47.65,4,47.58,3.86,47.5,3.73c-0.1,0.02-0.19,0.06-0.29,0.08c-0.06-0.02-0.11-0.03-0.16-0.05   c-0.01-0.04-0.03-0.08-0.04-0.12c0.05-0.02,0.1-0.03,0.15-0.04c0-0.01,0-0.03-0.01-0.04c-0.04,0.01-0.09,0.03-0.13,0.04   C47.02,3.58,47.01,3.55,47,3.53c0.06,0.01,0.12,0.01,0.17,0.02c0.01-0.01,0.02-0.03,0.02-0.04c-0.07,0-0.13,0-0.2,0   c0-0.02-0.01-0.04-0.01-0.07c0.14-0.03,0.29-0.06,0.43-0.08c0.08-0.03,0.15-0.07,0.23-0.1c0.11-0.06,0.22-0.12,0.32-0.17   c-0.09,0-0.17-0.01-0.26-0.01c0.06-0.01,0.11-0.01,0.17-0.01c-0.02-0.01-0.03-0.02-0.05-0.03c0.04,0,0.09-0.01,0.13-0.02   c0.01,0.02,0.03,0.03,0.04,0.05c0.05-0.02,0.11-0.04,0.16-0.06c0.1,0,0.21,0.01,0.32,0.01c0.14,0.03,0.28,0.07,0.42,0.1   c0.05,0.03,0.11,0.05,0.17,0.08c-0.06-0.01-0.11-0.02-0.17-0.03c0.32,0.14,0.63,0.29,0.93,0.44c0.02,0.03,0.04,0.05,0.06,0.08   c-0.06-0.01-0.12-0.01-0.18-0.02c-0.15-0.08-0.32-0.15-0.48-0.22c0.07,0.05,0.14,0.1,0.22,0.14c0.01,0.04,0.03,0.07,0.04,0.11   c0.09,0.05,0.18,0.09,0.27,0.13c-0.04-0.03-0.12-0.06-0.12-0.09c0-0.01,0-0.02,0-0.04c0,0.04,0.19,0.09,0.29,0.13   c-0.03-0.03-0.06-0.07-0.1-0.1c0.05,0,0.1-0.01,0.16-0.01c0.05,0.03,0.1,0.06,0.15,0.1c0-0.02,0-0.03-0.01-0.05   c-0.06-0.07-0.11-0.14-0.17-0.2c0.07,0.03,0.14,0.07,0.21,0.11c0.01,0.01,0.03,0.02,0.04,0.04c-0.03,0-0.06,0-0.09,0   c0.05,0.03,0.1,0.07,0.15,0.1c0.02-0.02,0.04-0.03,0.06-0.05c0.1,0.01,0.2,0.02,0.29,0.03c0.03,0.03,0.07,0.06,0.1,0.09   c0.07,0.01,0.13,0.03,0.2,0.04c0.03,0.02,0.05,0.05,0.08,0.07C50.98,4.01,50.99,4,51,4c-0.02-0.02-0.04-0.05-0.07-0.07   c-0.04-0.03-0.09-0.06-0.13-0.09c0,0,0.01-0.01,0.01-0.01c0.21,0.14,0.42,0.29,0.61,0.44c0-0.01,0-0.02,0-0.03   c-0.05-0.04-0.1-0.09-0.15-0.13c-0.02-0.04-0.06-0.08-0.08-0.13c0.01-0.02,0.02-0.04,0.03-0.06c0.05,0.03,0.1,0.07,0.15,0.1   c0.01,0.02,0.02,0.04,0.02,0.07c0.08,0.09,0.15,0.16,0.23,0.24c-0.02-0.03-0.04-0.07-0.06-0.1c-0.04-0.04-0.07-0.08-0.11-0.11   c0.01,0,0.03-0.01,0.04-0.01c0.02,0.03,0.04,0.06,0.06,0.09c0.05,0.04,0.1,0.07,0.16,0.11c-0.05-0.05-0.1-0.09-0.15-0.14   c0.03,0.02,0.05,0.03,0.08,0.05c0.01,0,0.02,0,0.03,0c0.05,0.05,0.1,0.09,0.16,0.14c0.01,0,0.02,0.01,0.02,0.01   c-0.05-0.06-0.11-0.12-0.17-0.17c0-0.01,0-0.02-0.01-0.02c0.07,0.04,0.14,0.09,0.21,0.13c-0.02-0.02-0.04-0.04-0.06-0.06   c0.01,0,0.02,0,0.03-0.01c0.11,0.07,0.2,0.14,0.29,0.21c-0.01-0.01-0.02-0.03-0.04-0.04c0.02,0.02,0.04,0.04,0.06,0.05   c-0.01-0.01-0.02-0.03-0.03-0.04c0.01,0,0.02,0.01,0.04,0.02c0.04,0.04,0.08,0.08,0.12,0.12c0.01,0.01,0.02,0.03,0.02,0.04   c0,0,0.01,0.01,0.01,0.01c1.03,1.46,1.6,3.25,1.49,5.07C53.79,9.67,53.79,9.69,53.79,9.71z M47.24,5.79   c0.01,0.02,0.03,0.04,0.04,0.06c-0.01,0.08-0.03,0.16-0.04,0.24c-0.03,0.01-0.07,0.02-0.09,0.04c-0.02-0.1-0.03-0.2-0.04-0.3   C47.15,5.81,47.19,5.81,47.24,5.79z M47.18,5.62c0.03-0.01,0.07-0.04,0.09-0.05c-0.01,0.07-0.03,0.15-0.05,0.22   C47.21,5.73,47.19,5.67,47.18,5.62z M47.58,6.31c0.14,0,0.27,0.01,0.41,0.01c-0.02,0.07-0.05,0.15-0.07,0.22   C47.8,6.46,47.69,6.38,47.58,6.31z M48.62,6.52c0.03-0.02,0.05-0.04,0.08-0.06c0.04,0.02,0.08,0.05,0.11,0.07   c0.01,0.07,0.02,0.14,0.03,0.21c-0.05-0.02-0.1-0.05-0.16-0.07C48.66,6.62,48.64,6.57,48.62,6.52z M48.9,6.91   c0-0.02,0.01-0.04,0.01-0.06c0.1,0.03,0.21,0.06,0.3,0.1c0,0.01-0.01,0.02-0.02,0.04c-0.07-0.01-0.15-0.02-0.22-0.03   C48.95,6.94,48.93,6.92,48.9,6.91z M49.87,7.1c0.08-0.01,0.15-0.03,0.23-0.04c-0.03,0.04-0.06,0.07-0.09,0.11   C49.96,7.14,49.92,7.12,49.87,7.1z M47.54,4.08c0.02-0.01,0.03-0.01,0.04-0.01c0.01,0.01,0.03,0.01,0.05,0.01   c0.01-0.01,0.03-0.01,0.05-0.01c0.01,0.01,0.01,0.02,0.02,0.03c-0.03,0.02-0.05,0.03-0.08,0.05C47.59,4.13,47.56,4.11,47.54,4.08z    M48.22,4.07c0-0.02,0-0.03,0-0.05c0.03-0.01,0.07-0.02,0.1-0.03c-0.01,0.02-0.03,0.04-0.04,0.06C48.26,4.05,48.24,4.06,48.22,4.07   z M48.55,4.01c0.04,0,0.08,0,0.12,0.01c-0.01,0.01-0.01,0.01-0.01,0.02c-0.02,0.01-0.05,0.01-0.07,0.01   C48.58,4.03,48.56,4.02,48.55,4.01z"/>
	<path class="st0" d="M39.39,6.25c0,0,0.01-0.01,0.02-0.01c-0.01-0.01-0.02-0.02-0.02-0.04C39.39,6.23,39.39,6.24,39.39,6.25z"/>
	<path class="st0" d="M39.51,6.24c-0.02,0.04-0.04,0.08-0.06,0.12c0,0.01,0,0.01,0,0.02c0.03-0.06,0.05-0.11,0.08-0.16   C39.51,6.22,39.52,6.24,39.51,6.24z"/>
	<path class="st2" d="M14.6,45.59c-3.21,2.08-6.32,4.83-8.65,8.01c-1.03,0.82-2.61,2.07-3.55,2.87c-0.04,0.03-0.08,0.06-0.11,0.09   l1.54,0.51c-0.01,0.03-0.03,0.05-0.04,0.08c0,0.01,0.01,0.02,0.01,0.03l-0.76,0.75l1.09-0.17l0.01-0.01   c0.13,0.11,0.3,0.18,0.52,0.23c0.02-0.01,0.04-0.03,0.06-0.04l0.73,1.48c0.03-0.04,0.05-0.08,0.08-0.13   c0.66-1.06,1.7-2.84,2.36-3.98c1.45-1.42,2.73-3.02,3.87-4.69C13.35,48.27,14.6,45.59,14.6,45.59z M5.5,58.63l-0.54-0.8l0.54,0.42   l1.83-2.59L5.5,58.63z M9.7,52.39c-1.42,1.95-2.91,3.63-5.06,5.12l-0.06,0.04L4.5,57.52c-0.05-0.03-0.09-0.06-0.11-0.08L4.3,57.35   l3.81-4.31l-2.99,3l-0.19-0.16c2.37-3.28,3.79-5.13,7.52-7.96l0.61-0.47l-0.43,0.63c-0.12,0.18-0.23,0.35-0.35,0.52   c-0.45,0.61-1,1.36-1.57,2.15c-1.45,2-4.36,5.02-4.36,5.02C7.51,54.88,8.67,53.65,9.7,52.39z"/>
	<path class="st0" d="M50.14,17.02c-0.06-0.03-0.17-0.01-0.26,0.03c0,0,0,0,0-0.01c-0.02-0.08-0.22-0.15-0.46-0.03   c-0.15,0.08-0.35,0.2-0.53,0.3c-1.99,1.14-4.75-0.36-5.22,0.71c-1.63,3.55-5.02,6.39-7.45,9.07c-0.58,0.64-1.05,1.52-1.65,2.04   c-0.87,0.75-2.06,1.06-2.8,1.91c-0.48,0.56-0.91,1.15-1.27,1.4c-0.2-0.19-0.46-0.62-0.58-0.91c-0.02-0.04-0.03-0.08-0.04-0.11   c-0.01-0.02-0.01-0.04-0.02-0.05c-0.05-0.39,0.15-0.7,0.15-0.7s1.11-1.86,1.16-1.94c0.13-0.24,0.13-0.38,0.13-0.38   c0-0.35-0.33-0.44-0.44-0.6c-0.11-0.16-0.01-0.43-0.01-0.43c0.03-0.15-0.02-0.24-0.07-0.28c-0.08-0.06-0.25-0.06-0.25-0.06   s0.06-0.11,0.03-0.3c-0.01-0.08-0.06-0.14-0.12-0.19c-0.1-0.08-0.43-0.14-0.5-0.26c-0.01-0.05,0.12-0.26,0.08-0.63   c-0.04-0.33-0.33-0.34-0.33-0.34s-0.67,0.06-1.2-0.02c-0.3-0.05-0.41-0.22-0.41-0.22c-0.94-1.64-2.29-1.99-2.29-1.99   c-0.06-0.26-0.06-0.8-0.52-0.96c-0.47-0.16-1.05,0.17-1.05,0.17s-0.71,0.4-1.55,1.14c-0.35,0.38-0.65,0.74-0.91,1.08l0,0   c0,0-0.01,0.01-0.01,0.01c-0.24,0.32-0.45,0.61-0.62,0.87c-0.34,0.49-0.72,1.08-0.89,1.45c-0.33,0.74-0.12,2.07,0.14,2.8   c0.26,0.73,0.68,1.72,1.51,2.4c0.83,0.68,1.46,0.71,2.05,0.75c0.92,0.07,1.67,0.36,1.67,0.36s0.36,0.15,0.73,0.61   c0.01,0.01,0.02,0.03,0.03,0.04c0.29,0.96,0.02,1.88-0.57,2.39c-2.8,2.1-3.05,6.05-5.34,8.54c-1.69,1.83-3.3,3.4-4.83,5.23   l-1.78,1.3c-0.5,0.23-1,0.48-1.48,0.75c-0.36,0.2-0.71,0.42-1.04,0.65c-0.19,0.13-0.37,0.27-0.54,0.41   c-0.14,0.11-0.27,0.23-0.42,0.33c-0.2,0.13-0.42,0.22-0.62,0.35c-0.28,0.2-0.53,0.43-0.74,0.7c-0.15,0.19-0.27,0.39-0.38,0.61   c-0.17,0.29-0.36,0.57-0.38,1.02c1.98,2.1,3-0.76,4.2-1.91c1.24-1.19,3.39-1.88,5.09-3.19c1.54-1.19,3.24-2.42,4.58-3.83   c1.94-2.03,2.44-4.85,4.2-6.75c1.12,2.14,4.62,3.37,3.94,6.37c-0.48,2.15-1.34,4.63-1.4,6.76c-0.01,0.31-0.01,0.62,0,0.92   c0,0-0.03,3.77-0.03,4.8c0,1.03-0.76,2.27-0.76,2.27c-0.17,0.27-0.79,1.11-1.24,1.72c-0.26,0.35-0.72,0.9-0.83,1.03   c-1.53,1.89-2.26,5.51-2.49,6.48c-0.24,1.03-0.57,1.39-0.57,1.39c-0.51,0.27-0.94,1.33-1.15,1.96c-0.21,0.63-0.6,1.63-0.6,1.63   s-0.72,1.33-1.01,2.22c-0.29,0.89,0.14,1.1,0.14,1.1c0.12,0.36,0.59,0.42,0.59,0.42c0.09,0.17,0.54,0.26,0.54,0.26h1.27   c0.51-0.02,0.69,0,0.8-0.38c0.11-0.38-0.08-0.86,0.17-2.34c0.24-1.48,0.45-2.09,0.88-3.4c0.42-1.32,0.86-1.66,2.43-3.9   c1.57-2.24,1.74-2.86,2.05-3.42c0.31-0.56,0.41-0.62,1.72-2.04c1.31-1.42,1.43-1.89,1.6-2.28c0.17-0.39,0.53-1.36,0.53-1.36   s0.58,0.48,0.43,1.28c-0.02,0.12-0.43,1.84-0.69,2.93c-0.38,1.61,0.23,3.55,0.55,4.84c0.32,1.28,0.54,2.58,0.57,3.41   c0.03,0.83-0.38,1.64-0.38,1.64c-0.36,0.79-0.29,1.26-0.29,1.26c0.18,0.91,1.39,0.77,1.39,0.77s1.71,0.03,2.02,0   c0.32-0.03,1.16,0.51,1.51,0.71c0.35,0.2,0.97,0.22,0.97,0.22s0.95-0.01,1.26-0.04c0.31-0.04,0.38-0.23,0.42-0.37   c0.05-0.21-0.03-0.4-0.03-0.4h0.09c0.05,0,0.05-0.07,0.05-0.07l0-0.09c0-0.2-0.13-0.24-0.13-0.24c-0.02-0.11-0.27-0.12-0.31-0.12   c-0.03-0.09-0.18-0.1-0.27-0.1c0.01,0,0.1,0.05,0.13,0.15h0.11c0,0,0.26-0.01,0.27,0.12c0,0,0.12,0.01,0.14,0.11   c0,0,0.01,0.05-0.04,0.05c-0.05,0-0.12,0-0.12,0s-0.03-0.14-0.16-0.13c-0.01,0-0.27-0.04-0.27-0.04s0.06-0.2-0.47-0.32   c0.13,0,0.22,0.02,0.29,0.03c-0.12-0.06-0.38-0.12-0.57-0.12c-0.23,0-0.39-0.2-0.39-0.2s-1.5-1.55-2.04-2.03   c-0.72-0.63-0.77-0.81-0.77-0.93c0-0.12-0.05-8.8,0.35-9.83c0.18-0.45,0.63-1.78,0.75-2.09c0.12-0.3,0.18-2.59,0.18-3.16   c0-0.57,0.26-1.63,0.26-1.63c0.25-1.14,0.47-2.19,0.57-2.8c0.17-0.69,0.32-1.37,0.41-2.04c0.37-2.82-0.76-4.89-1.27-7.14   c-0.38-1.65-0.64-3.52-1.27-5.1c-0.57-1.44-1.81-3.33-1.91-4.46c-0.18-2.02,2.04-3.25,3.18-4.46c0.92-0.98,1.77-2.11,2.67-3.06   c2.05-2.13,3.16-4.61,4.58-6.88c1.54-2.47,2.66,0.04,5.3-2.44C50.24,17.43,50.33,17.13,50.14,17.02z M25.59,23.82   c-0.23,0.31-0.66,0.38-1.05,0.74c-0.39,0.37-0.13,0.71-0.13,0.71c0.22,0.25,0.67,0.8,0.05,1.12c-0.4,0.21-1.56,0.06-1.56,0.06   c1.53-0.22,1.31-0.63,1.21-0.78c-0.1-0.15-0.27-0.13-0.83,0.24c-0.56,0.37-1.04,0.41-1.04,0.41c0.63-0.26,1.14-0.66,1.59-1.27   c0.13-0.17,0.3-0.46,0.3-0.46s-0.21-0.05-0.88,0.54c-0.36,0.31-1.01,0.52-1.01,0.52s0.38-0.22,0.96-0.9   c0.63-0.74,1.48-0.79,1.48-0.79s-0.28-0.15-1.06,0.12c-0.32,0.11-0.82,0.46-0.82,0.46c0.56-0.75,1.01-0.97,1.66-0.95   c1.29,0.03,1.14-0.36,1.14-0.36C25.7,23.33,25.82,23.52,25.59,23.82z M11.54,54.64c-0.55-0.04-0.67,0.35-0.77,0.76   c-0.36-0.6,0.79-1.02,0.13-1.66c-0.59,0.84-0.56,1.66-1.4,1.91c0.27-0.97,1.3-2.64,2.64-2.67C11.72,53.09,11.18,54,11.54,54.64z    M19.43,48.39c-0.17-0.04-0.2-0.22-0.38-0.25c-0.32,0.09,0.24,0.34,0.13,0.63c-0.16-0.05-0.26-0.16-0.25-0.38   c-0.74,0.33-1.12,1.01-1.53,1.66c0.13-0.08,0.13-0.29,0.38-0.26c-0.2,0.31-0.35,0.67-0.76,0.76c0.06-0.27-0.18-0.24-0.38-0.26   c0.57-1.8,2.69-2.06,3.05-4.08c0.7-0.19,0.47-1.31,1.4-1.27c-0.08-0.13-0.29-0.13-0.26-0.38c0.1-0.11,0.35-0.07,0.38-0.26   c0.02,0.45,0.23,1.24,0.76,1.53C21.71,47.28,19.89,47.16,19.43,48.39z M28.33,36.54c-0.82,0.39-1.91,0.36-2.8,1.15   c-1.79,1.59-2.01,4.9-4.07,6.63c2.12-2.12,1.97-6.52,4.96-7.78c0.39,0.13-0.28,0.21-0.26,0.38c0.41,0.24,0.56-0.88,1.27-0.77   c0.08-0.58,0.01-0.93,0.89-0.89c-0.05,0.33-0.22,0.8-0.51,0.51C27.86,36.17,28.18,36.27,28.33,36.54z M22.55,79.06   c-0.02-0.13-0.15-0.11-0.15-0.11h-0.41c-0.01-0.1-0.09-0.07-0.09-0.07s-0.43,0-0.45,0c0.02-0.15-0.15-0.18-0.15-0.18h-0.41   c0.02-0.23-0.29-0.27-0.29-0.27s0.13,0,0.15,0c0.26-0.01,0.24,0.13,0.24,0.13s0.23,0.01,0.39,0c0.16-0.01,0.14,0.15,0.14,0.15   s0.26,0.01,0.38,0c0.12,0,0.12,0.11,0.12,0.11s0.29-0.01,0.41,0c0.12,0.01,0.11,0.16,0.11,0.16V79.06z M22.66,74.44   c-0.48-0.07-0.38-0.78-0.38-0.78c0.01-0.1,0.07-0.18,0.1-0.04c0.03,0.13,0.07,0.21,0.2,0.29c0.12,0.08,0.29-0.17,0.49-0.41   c0.2-0.24,0.22-0.06,0.22-0.06S23.14,74.51,22.66,74.44z M23.34,78.96c0,0-0.03-0.06-0.24-0.07c-0.22,0-0.35,0.02-0.4,0.09v-0.03   c0,0,0-0.25,0.22-0.25c0.22,0,0.25,0,0.25,0s0.16,0.01,0.17,0.14V78.96z M28.71,61.52c-0.09,0.22-0.58,1.09-0.89,1.66   c-0.43,0.8-0.73,1.95-1.53,1.91c0.86-1.06,1.59-3.21,2.67-4.46c0.01,0.18-0.05,0.41,0.07,0.49C28.86,61.14,28.46,61.72,28.71,61.52   z M40.16,76.95c0.07-0.01,0.08-0.04,0.11-0.09c0.08-0.13,0.16-0.17,0.16-0.17s-0.1,0.17-0.11,0.34c-0.13,0.02-0.57-0.11-0.57-0.11   S40.08,76.96,40.16,76.95z M31.64,36.28c-0.3,0.53-0.31,0.18-0.89,0.13c0.22-0.77-1.09-0.46-1.15-1.4c-0.34-0.01-0.26,0.21-0.51,0   c-0.24-0.09,0.14-0.2,0.13,0c0.09-0.33,0.29-0.98,0.38-1.66c0.26,0.04,0.25,0.34,0.38,0.51c0.09-0.11-0.03-0.66,0.25-0.89   c0.59,0.06,0.76,0.17,1.53,0.26c-0.25,0.09-0.41,0.58,0,0.64c-0.1,0.23-0.23,0.02-0.39,0c-0.13,0.43,0.4,0.2,0.64,0.26   c0.14-0.48-0.31-0.36-0.25-0.76c0.37-0.11,0.14-0.19,0.12-0.51c0.46-0.31,0.85-0.28,1.27-0.38c0.1,0.29,0.12,1.12-0.51,1.28   c0.41,0.15,0.09,1.02,0.77,0.89c-0.36,0.63,0.56,0.59,0.38,1.4c-0.81-0.42-0.97-1.49-2.03-1.66c0.09,0.12,0.23,0.2,0.38,0.26   c-0.39,1.89,0.11,2.71,0.76,4.21C32.1,38.37,31.77,37.43,31.64,36.28z M34.04,75.25c0,0-0.26-0.02-0.47-0.14   c-0.21-0.12-0.09-0.34-0.08-0.36c0.08-0.14,0.14-0.07,0.23,0.05c0.09,0.11,0.27,0.26,0.38,0.35   C34.22,75.25,34.04,75.25,34.04,75.25z M34.82,38.45c-0.03,0.83,0.81,1.2,0.51,1.91c-0.41-0.08-0.59,0.09-0.89,0.13   c-0.28-0.27,0.11-0.41-0.13-0.64c-0.1,0.07-0.21,0.14-0.38,0.13c0,0.37,0.59,0.43,0.25,0.76c-0.18-0.13-0.67-0.59-0.38-0.76   c-0.05-0.19-0.16,0.05-0.38,0c-0.08-0.27-0.32-0.36-0.26-0.77c0.35-0.09,0.26,0.25,0.51,0.25c-0.11-0.27-0.33-0.43-0.25-0.89   c0.36,0.19,0.87,0.23,1.14,0.51c0.06,0.4-0.34,0.34-0.38,0.64c0.62,0.05,0.13-0.27,0.51-0.51c-0.19-0.28-0.25-0.68-0.51-0.89   C34.2,38.08,34.66,38.42,34.82,38.45z M39.15,25.19c-0.06,0.07,0.07,0.32,0,0.38c-0.74,0.71-1.84,1.09-2.58,1.76   c-0.03,0.1-0.11,0.19-0.11,0.29c0-0.08,0-0.17,0-0.26c0-0.01,0.09-0.02,0.11-0.03c0.22-0.79,1.39-1.68,2.16-1.63   c0-0.12-0.14-0.1-0.23-0.13c1.44-2.08,3.7-4.03,4.72-6.12c0.72,0.01,0.93-0.56,1.55-1.05C43.18,20.79,41.3,22.92,39.15,25.19z"/>
</g>
</svg>